<svg width="270" height="24" viewBox="0 0 270 24" fill="none" xmlns="http://www.w3.org/2000/svg">
<path d="M4.78463 5.632L3.61663 6.784L2.44863 5.632L3.61663 4.48L4.78463 5.632ZM7.32863 5.632L6.16063 6.784L4.97663 5.632L6.16063 4.48L7.32863 5.632ZM9.96863 14.56C10.0753 14.56 10.1286 14.608 10.1286 14.704V15.84C10.1286 15.9467 10.0753 16 9.96863 16C8.98729 16 8.26196 15.7707 7.79263 15.312C6.71529 15.8667 5.74996 16.144 4.89663 16.144C3.81929 16.144 2.93396 15.776 2.24063 15.04C1.55796 14.304 1.21663 13.392 1.21663 12.304C1.21663 11.1947 1.56329 10.2507 2.25663 9.472C2.94996 8.69333 3.82996 8.304 4.89663 8.304C5.54729 8.304 6.26196 8.45333 7.04063 8.752V7.76L8.38463 7.536L8.40063 12.768C8.40063 13.408 8.52329 13.8667 8.76863 14.144C9.01396 14.4213 9.41396 14.56 9.96863 14.56ZM4.89663 14.768C5.61129 14.7787 6.37929 14.5973 7.20063 14.224C7.09396 13.8613 7.04063 13.4187 7.04063 12.896V10.112C6.17663 9.824 5.47796 9.68 4.94463 9.68C4.22996 9.68 3.64329 9.93067 3.18463 10.432C2.73663 10.9333 2.51263 11.552 2.51263 12.288C2.51263 12.992 2.73129 13.5787 3.16863 14.048C3.61663 14.5173 4.19263 14.7573 4.89663 14.768ZM20.1288 14.56C20.2354 14.56 20.2888 14.608 20.2888 14.704V15.84C20.2888 15.9467 20.2354 16 20.1288 16H19.3928C18.7208 16 18.1768 15.8507 17.7608 15.552C17.3448 15.2533 17.0674 14.8373 16.9288 14.304C14.4754 15.4347 12.1608 16 9.98475 16C9.86742 16 9.80875 15.9467 9.80875 15.84V14.704C9.80875 14.608 9.86742 14.56 9.98475 14.56C12.4488 14.56 14.9501 13.9413 17.4888 12.704C16.1128 11.552 15.0941 10.7893 14.4328 10.416C13.7821 10.0427 13.1634 9.856 12.5768 9.856C12.3314 9.856 11.8088 9.94133 11.0088 10.112L10.7368 8.896C11.5261 8.59733 12.2088 8.448 12.7848 8.448C13.4781 8.448 14.2088 8.67733 14.9768 9.136C15.7554 9.59467 17.0568 10.5813 18.8808 12.096L18.6728 13.424C18.3741 13.6053 18.0701 13.7653 17.7608 13.904C18.0274 14.3413 18.5768 14.56 19.4088 14.56H20.1288ZM25.773 5.728L24.605 6.896L23.421 5.728L24.573 4.576L25.773 5.728ZM29.133 14.56C29.2397 14.56 29.293 14.608 29.293 14.704V15.84C29.293 15.9467 29.2397 16 29.133 16C27.5543 16 26.0877 15.8027 24.733 15.408C23.517 15.8027 21.981 16 20.125 16C20.0183 15.9893 19.965 15.936 19.965 15.84V14.704C19.965 14.608 20.0183 14.56 20.125 14.56C21.053 14.56 21.885 14.528 22.621 14.464C21.6397 13.728 21.149 12.784 21.149 11.632C21.149 10.6613 21.485 9.856 22.157 9.216C22.829 8.56533 23.6663 8.24 24.669 8.24C25.693 8.24 26.5357 8.57067 27.197 9.232C27.8583 9.88267 28.189 10.6827 28.189 11.632C28.189 12.7733 27.6983 13.7067 26.717 14.432C27.3463 14.5173 28.1517 14.56 29.133 14.56ZM24.621 9.584C23.9917 9.584 23.4743 9.792 23.069 10.208C22.6743 10.6133 22.477 11.136 22.477 11.776C22.477 12.3413 22.6743 12.8533 23.069 13.312C23.4637 13.7707 23.9917 14.096 24.653 14.288C25.3357 14.064 25.8743 13.728 26.269 13.28C26.6743 12.832 26.877 12.3307 26.877 11.776C26.877 11.136 26.6583 10.6133 26.221 10.208C25.7943 9.792 25.261 9.584 24.621 9.584ZM43.7806 14.56C43.8873 14.56 43.9406 14.608 43.9406 14.704V15.84C43.9406 15.9467 43.8873 16 43.7806 16C42.842 16 41.978 15.6373 41.1886 14.912C40.6126 15.6373 39.6793 16 38.3886 16H31.3966H29.1406C29.034 16 28.9806 15.9467 28.9806 15.84V14.704C29.002 14.608 29.0553 14.56 29.1406 14.56H30.7406L30.7246 8.272L32.0846 8.048V9.968C33.7486 9.25333 35.002 8.768 35.8446 8.512C36.698 8.24533 37.5246 8.112 38.3246 8.112C39.338 8.112 40.17 8.43733 40.8206 9.088C41.482 9.728 41.8073 10.5547 41.7966 11.568V12.928C41.7966 13.2053 41.7593 13.5093 41.6846 13.84C42.3673 14.32 43.066 14.56 43.7806 14.56ZM40.4366 12.688V11.76C40.4366 11.088 40.2126 10.5493 39.7646 10.144C39.3166 9.728 38.7406 9.52 38.0366 9.52C37.322 9.52 36.618 9.62133 35.9246 9.824C35.2313 10.016 33.9513 10.4587 32.0846 11.152V14.56H38.4046C39.0553 14.56 39.5566 14.4 39.9086 14.08C40.2606 13.76 40.4366 13.296 40.4366 12.688ZM43.7812 16C43.6746 16 43.6212 15.9467 43.6212 15.84V14.704C43.6212 14.608 43.6799 14.56 43.7973 14.56C45.1306 14.56 45.7973 13.8667 45.7973 12.48L45.8133 4.528L47.1573 4.32V12.8C47.1573 14.9333 46.0319 16 43.7812 16ZM49.9233 16V4.528L51.2833 4.32V16H49.9233ZM61.5895 9.44L60.4055 8.272L61.5575 7.12L62.7575 8.272L61.5895 9.44ZM61.4935 19.44C60.1495 19.44 59.0828 19.088 58.2935 18.384C57.5148 17.6907 57.1255 16.6613 57.1255 15.296C57.1255 14.1547 57.3602 12.8693 57.8295 11.44L58.9335 11.744C58.5602 12.8427 58.3735 13.9093 58.3735 14.944C58.3842 15.9467 58.6668 16.704 59.2215 17.216C59.7762 17.7387 60.5602 18 61.5735 18C62.6402 18 63.4295 17.696 63.9415 17.088C64.4642 16.4907 64.7255 15.5627 64.7255 14.304V8.272L66.0695 8.048V14.448C66.0695 15.9947 65.6962 17.2107 64.9495 18.096C64.2028 18.992 63.0508 19.44 61.4935 19.44ZM68.6264 16V4.528L69.9864 4.32V16H68.6264ZM79.9529 14.56C80.0595 14.56 80.1129 14.608 80.1129 14.704V15.84C80.1129 15.9467 80.0595 16 79.9529 16H79.0089C78.8169 18.2933 76.8329 19.44 73.0569 19.44L72.8969 18.272C74.3795 18.272 75.5155 18.0907 76.3049 17.728C77.0942 17.3653 77.5422 16.7893 77.6489 16H75.7289C74.5982 16 73.6915 15.6587 73.0089 14.976C72.3262 14.2827 71.9849 13.3547 71.9849 12.192C71.9849 11.0507 72.3315 10.1173 73.0249 9.392C73.7289 8.66667 74.6142 8.304 75.6809 8.304C76.6729 8.304 77.4782 8.63467 78.0969 9.296C78.7155 9.94667 79.0249 10.8107 79.0249 11.888V14.56H79.9529ZM73.2489 12.128C73.2489 12.928 73.4889 13.5413 73.9689 13.968C74.4489 14.3947 75.0942 14.608 75.9049 14.608C76.2462 14.608 76.8329 14.5973 77.6649 14.576V12C77.6649 11.3067 77.4675 10.752 77.0729 10.336C76.6889 9.90933 76.1822 9.696 75.5529 9.696C74.8915 9.696 74.3422 9.92 73.9049 10.368C73.4675 10.816 73.2489 11.4027 73.2489 12.128ZM83.8091 7.408L82.6411 8.576L81.4571 7.408L82.6091 6.256L83.8091 7.408ZM85.2491 14.56C85.3558 14.56 85.4091 14.608 85.4091 14.704V15.84C85.4091 15.9467 85.3558 16 85.2491 16C84.3425 16 83.4945 15.6533 82.7051 14.96C82.1398 15.6533 81.2225 16 79.9531 16C79.8465 16 79.7931 15.9467 79.7931 15.84L79.8091 14.704C79.8091 14.608 79.8625 14.56 79.9691 14.56C81.3131 14.56 81.9851 13.8933 81.9851 12.56L81.9691 9.968L83.3291 9.76V12.928C83.3291 13.3013 83.2918 13.6213 83.2171 13.888C83.8785 14.336 84.5558 14.56 85.2491 14.56ZM88.258 14.496C89.7727 14.432 91.5433 14.2293 93.57 13.888L93.282 15.328C90.882 15.776 88.2047 16 85.25 16C85.1433 16 85.09 15.9467 85.09 15.84V14.704C85.09 14.608 85.1433 14.56 85.25 14.56C85.9967 14.56 86.5407 14.5547 86.882 14.544C86.2847 13.584 85.986 12.6293 85.986 11.68C85.986 10.688 86.3327 9.87733 87.026 9.248C87.7193 8.61867 88.5833 8.304 89.618 8.304C90.3007 8.304 91.2607 8.512 92.498 8.928L92.114 10.096C91.1433 9.79733 90.386 9.648 89.842 9.648C89.106 9.648 88.498 9.86133 88.018 10.288C87.5487 10.7147 87.314 11.28 87.314 11.984C87.314 12.816 87.6287 13.6533 88.258 14.496Z" fill="#00579F"/>
<path fill-rule="evenodd" clip-rule="evenodd" d="M114.106 6.55806C114.35 6.80214 114.35 7.19786 114.106 7.44194L109.548 12L114.106 16.5581C114.35 16.8021 114.35 17.1979 114.106 17.4419C113.862 17.686 113.466 17.686 113.222 17.4419L108.222 12.4419C107.978 12.1979 107.978 11.8021 108.222 11.5581L113.222 6.55806C113.466 6.31398 113.862 6.31398 114.106 6.55806Z" fill="#4D637C"/>
<path d="M133.083 16H131.675V14.576H133.083V16ZM136.13 16H134.722V14.576H136.13V16ZM139.177 16H137.769V14.576H139.177V16Z" fill="#4D637C"/>
<path fill-rule="evenodd" clip-rule="evenodd" d="M160.106 6.55806C160.35 6.80214 160.35 7.19786 160.106 7.44194L155.548 12L160.106 16.5581C160.35 16.8021 160.35 17.1979 160.106 17.4419C159.862 17.686 159.466 17.686 159.222 17.4419L154.222 12.4419C153.978 12.1979 153.978 11.8021 154.222 11.5581L159.222 6.55806C159.466 6.31398 159.862 6.31398 160.106 6.55806Z" fill="#4D637C"/>
<path d="M181.59 9.44L180.406 8.272L181.558 7.12L182.758 8.272L181.59 9.44ZM181.494 19.44C180.15 19.44 179.083 19.088 178.294 18.384C177.515 17.6907 177.126 16.6613 177.126 15.296C177.126 14.1547 177.36 12.8693 177.83 11.44L178.934 11.744C178.56 12.8427 178.374 13.9093 178.374 14.944C178.384 15.9467 178.667 16.704 179.222 17.216C179.776 17.7387 180.56 18 181.574 18C182.64 18 183.43 17.696 183.942 17.088C184.464 16.4907 184.726 15.5627 184.726 14.304V8.272L186.07 8.048V14.448C186.07 15.9947 185.696 17.2107 184.95 18.096C184.203 18.992 183.051 19.44 181.494 19.44ZM188.626 16V4.528L189.986 4.32V16H188.626ZM199.953 14.56C200.06 14.56 200.113 14.608 200.113 14.704V15.84C200.113 15.9467 200.06 16 199.953 16H199.009C198.817 18.2933 196.833 19.44 193.057 19.44L192.897 18.272C194.38 18.272 195.516 18.0907 196.305 17.728C197.094 17.3653 197.542 16.7893 197.649 16H195.729C194.598 16 193.692 15.6587 193.009 14.976C192.326 14.2827 191.985 13.3547 191.985 12.192C191.985 11.0507 192.332 10.1173 193.025 9.392C193.729 8.66667 194.614 8.304 195.681 8.304C196.673 8.304 197.478 8.63467 198.097 9.296C198.716 9.94667 199.025 10.8107 199.025 11.888V14.56H199.953ZM193.249 12.128C193.249 12.928 193.489 13.5413 193.969 13.968C194.449 14.3947 195.094 14.608 195.905 14.608C196.246 14.608 196.833 14.5973 197.665 14.576V12C197.665 11.3067 197.468 10.752 197.073 10.336C196.689 9.90933 196.182 9.696 195.553 9.696C194.892 9.696 194.342 9.92 193.905 10.368C193.468 10.816 193.249 11.4027 193.249 12.128ZM203.809 7.408L202.641 8.576L201.457 7.408L202.609 6.256L203.809 7.408ZM205.249 14.56C205.356 14.56 205.409 14.608 205.409 14.704V15.84C205.409 15.9467 205.356 16 205.249 16C204.342 16 203.494 15.6533 202.705 14.96C202.14 15.6533 201.222 16 199.953 16C199.846 16 199.793 15.9467 199.793 15.84L199.809 14.704C199.809 14.608 199.862 14.56 199.969 14.56C201.313 14.56 201.985 13.8933 201.985 12.56L201.969 9.968L203.329 9.76V12.928C203.329 13.3013 203.292 13.6213 203.217 13.888C203.878 14.336 204.556 14.56 205.249 14.56ZM208.258 14.496C209.773 14.432 211.543 14.2293 213.57 13.888L213.282 15.328C210.882 15.776 208.205 16 205.25 16C205.143 16 205.09 15.9467 205.09 15.84V14.704C205.09 14.608 205.143 14.56 205.25 14.56C205.997 14.56 206.541 14.5547 206.882 14.544C206.285 13.584 205.986 12.6293 205.986 11.68C205.986 10.688 206.333 9.87733 207.026 9.248C207.719 8.61867 208.583 8.304 209.618 8.304C210.301 8.304 211.261 8.512 212.498 8.928L212.114 10.096C211.143 9.79733 210.386 9.648 209.842 9.648C209.106 9.648 208.498 9.86133 208.018 10.288C207.549 10.7147 207.314 11.28 207.314 11.984C207.314 12.816 207.629 13.6533 208.258 14.496Z" fill="#4D637C"/>
<path fill-rule="evenodd" clip-rule="evenodd" d="M234.106 6.55806C234.35 6.80214 234.35 7.19786 234.106 7.44194L229.548 12L234.106 16.5581C234.35 16.8021 234.35 17.1979 234.106 17.4419C233.862 17.686 233.466 17.686 233.222 17.4419L228.222 12.4419C227.978 12.1979 227.978 11.8021 228.222 11.5581L233.222 6.55806C233.466 6.31398 233.862 6.31398 234.106 6.55806Z" fill="#4D637C"/>
<path fill-rule="evenodd" clip-rule="evenodd" d="M260.942 3.92314C260.324 3.75218 259.671 3.75218 259.053 3.92314C258.734 4.01153 258.406 4.17611 257.962 4.48146C257.51 4.79126 256.973 5.22021 256.223 5.8204L254.557 7.15374C253.611 7.9105 253.233 8.21956 252.963 8.59128C252.714 8.93479 252.529 9.32025 252.416 9.72929C252.294 10.1719 252.289 10.6601 252.289 11.8715V13.6673C252.289 14.8444 252.29 15.6896 252.344 16.3531C252.397 17.0092 252.5 17.4323 252.675 17.7752C253.015 18.4416 253.556 18.9834 254.223 19.323C254.566 19.4977 254.989 19.6007 255.645 19.6543C255.996 19.683 256.398 19.6966 256.872 19.7031V14.4796C256.872 14.1092 256.872 13.8 256.89 13.5462C256.908 13.2819 256.947 13.0323 257.047 12.7903C257.279 12.2288 257.726 11.7827 258.287 11.5501C258.529 11.4499 258.779 11.411 259.043 11.393C259.297 11.3756 259.606 11.3756 259.976 11.3757H260.018C260.389 11.3756 260.698 11.3756 260.952 11.393C261.216 11.411 261.466 11.4499 261.708 11.5501C262.269 11.7827 262.715 12.2288 262.948 12.7903C263.048 13.0323 263.087 13.2819 263.105 13.5462C263.122 13.8 263.122 14.1092 263.122 14.4796V19.7031C263.597 19.6966 263.999 19.683 264.35 19.6543C265.006 19.6007 265.429 19.4977 265.772 19.323C266.438 18.9834 266.98 18.4416 267.32 17.7752C267.494 17.4323 267.597 17.0092 267.651 16.3531C267.705 15.6896 267.706 14.8444 267.706 13.6673V11.8715C267.706 10.6601 267.7 10.1719 267.579 9.72929C267.466 9.32025 267.281 8.93479 267.032 8.59128C266.762 8.21956 266.384 7.9105 265.438 7.15373L263.772 5.8204C263.021 5.22021 262.485 4.79126 262.033 4.48146C261.588 4.17611 261.261 4.01153 260.942 3.92314ZM262.534 20.958C263.289 20.955 263.918 20.9437 264.452 20.9001C265.185 20.8402 265.791 20.7162 266.339 20.4367C267.241 19.9773 267.974 19.2443 268.433 18.3427C268.713 17.7942 268.837 17.1883 268.897 16.4549C268.956 15.7346 268.956 14.8384 268.956 13.6953V11.8715C268.956 11.8391 268.956 11.8072 268.956 11.7755C268.956 10.6906 268.956 10.0228 268.784 9.3973C268.631 8.8439 268.381 8.32239 268.044 7.85764C267.663 7.3323 267.141 6.91521 266.294 6.23757C266.269 6.21782 266.244 6.19785 266.219 6.17765L264.533 4.82905C263.806 4.24744 263.234 3.78964 262.741 3.45087C262.236 3.10469 261.78 2.858 261.275 2.71839C260.439 2.4871 259.556 2.4871 258.72 2.71839C258.215 2.858 257.759 3.10469 257.254 3.45087C256.761 3.78964 256.188 4.24744 255.461 4.82904L253.776 6.17765C253.75 6.19785 253.725 6.21782 253.701 6.23757C252.853 6.91521 252.332 7.3323 251.951 7.85764C251.614 8.32239 251.364 8.8439 251.211 9.3973C251.039 10.0228 251.039 10.6906 251.039 11.7755C251.039 11.8072 251.039 11.8391 251.039 11.8715L251.039 13.6953C251.039 14.8384 251.039 15.7346 251.098 16.4549C251.158 17.1883 251.282 17.7942 251.561 18.3427C252.021 19.2443 252.754 19.9773 253.655 20.4367C254.204 20.7162 254.81 20.8402 255.543 20.9001C256.077 20.9437 256.706 20.955 257.461 20.958C257.473 20.9586 257.485 20.959 257.497 20.959C257.508 20.959 257.519 20.9587 257.529 20.9582C257.774 20.959 258.031 20.959 258.303 20.959H261.692C261.964 20.959 262.221 20.959 262.466 20.9582C262.476 20.9587 262.487 20.959 262.497 20.959C262.51 20.959 262.522 20.9586 262.534 20.958ZM261.872 19.709V14.5007C261.872 14.1038 261.872 13.8375 261.858 13.6313C261.844 13.4307 261.82 13.333 261.793 13.2687C261.687 13.0135 261.485 12.8107 261.229 12.7049C261.165 12.6783 261.067 12.6537 260.867 12.6401C260.661 12.626 260.394 12.6257 259.997 12.6257C259.601 12.6257 259.334 12.626 259.128 12.6401C258.927 12.6537 258.83 12.6783 258.765 12.7049C258.51 12.8107 258.307 13.0135 258.202 13.2687C258.175 13.333 258.151 13.4307 258.137 13.6313C258.123 13.8375 258.122 14.1038 258.122 14.5007V19.709C258.191 19.709 258.26 19.709 258.331 19.709H261.664C261.735 19.709 261.804 19.709 261.872 19.709Z" fill="#4D637C"/>
</svg>
