<svg width="21" height="20" viewBox="0 0 21 20" fill="none" xmlns="http://www.w3.org/2000/svg">
<path fill-rule="evenodd" clip-rule="evenodd" d="M7.37615 1.04102H8.43115C9.34127 1.04101 10.0625 1.04101 10.6439 1.08851C11.2384 1.13708 11.7414 1.23842 12.2007 1.47245C12.9455 1.85195 13.551 2.4575 13.9305 3.2023C14.1646 3.66162 14.2659 4.16464 14.3145 4.75913C14.3445 5.12654 14.3556 5.54984 14.3596 6.04137C14.8416 6.04253 15.2445 6.04753 15.5866 6.06894C16.0423 6.09747 16.4316 6.15684 16.798 6.29472C17.8648 6.69625 18.7067 7.5382 19.1083 8.60503C19.2462 8.97136 19.3055 9.36069 19.3341 9.8164C19.362 10.2627 19.362 10.8125 19.362 11.5063V13.0269C19.362 13.937 19.362 14.6582 19.3145 15.2396C19.2659 15.8341 19.1646 16.3371 18.9305 16.7964C18.551 17.5412 17.9455 18.1468 17.2007 18.5263C16.7414 18.7603 16.2384 18.8616 15.6439 18.9102C15.0625 18.9577 14.3413 18.9577 13.4312 18.9577H11.9106C11.2168 18.9577 10.667 18.9577 10.2207 18.9298C9.76499 18.9012 9.37566 18.8419 9.00932 18.704C7.94249 18.3025 7.10054 17.4605 6.69902 16.3937C6.56114 16.0273 6.50176 15.638 6.47324 15.1823C6.45183 14.8402 6.44683 14.4373 6.44567 13.9553C5.95413 13.9513 5.53084 13.9402 5.16342 13.9102C4.56893 13.8616 4.06591 13.7603 3.6066 13.5262C2.86179 13.1468 2.25624 12.5412 1.87675 11.7964C1.64271 11.3371 1.54137 10.8341 1.4928 10.2396C1.4453 9.65822 1.44531 8.93697 1.44531 8.02685V6.97185C1.44531 6.06173 1.4453 5.34048 1.4928 4.75913C1.54137 4.16464 1.64271 3.66162 1.87675 3.2023C2.25624 2.4575 2.86179 1.85195 3.6066 1.47245C4.06591 1.23842 4.56893 1.13708 5.16342 1.08851C5.74478 1.04101 6.46602 1.04101 7.37615 1.04102ZM7.69571 13.9577C7.6969 14.4313 7.70168 14.7988 7.7208 15.1042C7.74569 15.5018 7.79313 15.752 7.8689 15.9534C8.14363 16.6833 8.7197 17.2594 9.44964 17.5341C9.65095 17.6099 9.90116 17.6573 10.2988 17.6822C10.7014 17.7074 11.2122 17.7077 11.9314 17.7077H13.4036C14.3474 17.7077 15.0176 17.7072 15.5421 17.6643C16.0593 17.6221 16.3795 17.5418 16.6332 17.4125C17.1428 17.1528 17.5571 16.7385 17.8168 16.2289C17.9461 15.9752 18.0264 15.655 18.0686 15.1378C18.1115 14.6133 18.112 13.9431 18.112 12.9993V11.5271C18.112 10.8079 18.1117 10.2971 18.0865 9.89449C18.0616 9.49686 18.0142 9.24665 17.9384 9.04534C17.6637 8.3154 17.0876 7.73933 16.3577 7.4646C16.1563 7.38884 15.9061 7.34139 15.5085 7.3165C15.2031 7.29739 14.8356 7.29261 14.362 7.29141V8.02687C14.362 8.93698 14.362 9.65822 14.3145 10.2396C14.2659 10.8341 14.1646 11.3371 13.9305 11.7964C13.551 12.5412 12.9455 13.1468 12.2007 13.5262C11.7414 13.7603 11.2384 13.8616 10.6439 13.9102C10.0625 13.9577 9.34127 13.9577 8.43116 13.9577H7.69571ZM5.26521 2.33435C4.74802 2.37661 4.42782 2.45693 4.17409 2.58621C3.66448 2.84586 3.25016 3.26019 2.9905 3.76979C2.86122 4.02352 2.78091 4.34373 2.73865 4.86092C2.6958 5.3854 2.69531 6.05562 2.69531 6.99935V7.99935C2.69531 8.94308 2.6958 9.61329 2.73865 10.1378C2.78091 10.655 2.86122 10.9752 2.9905 11.2289C3.25016 11.7385 3.66448 12.1528 4.17409 12.4125C4.42782 12.5418 4.74802 12.6221 5.26521 12.6643C5.7897 12.7072 6.45991 12.7077 7.40365 12.7077H8.40365C9.34738 12.7077 10.0176 12.7072 10.5421 12.6643C11.0593 12.6221 11.3795 12.5418 11.6332 12.4125C12.1428 12.1528 12.5571 11.7385 12.8168 11.2289C12.9461 10.9752 13.0264 10.655 13.0686 10.1378C13.1115 9.61329 13.112 8.94308 13.112 7.99935V6.99935C13.112 6.05562 13.1115 5.3854 13.0686 4.86092C13.0264 4.34373 12.9461 4.02352 12.8168 3.76979C12.5571 3.26019 12.1428 2.84586 11.6332 2.58621C11.3795 2.45693 11.0593 2.37661 10.5421 2.33435C10.0176 2.2915 9.34738 2.29102 8.40365 2.29102H7.40365C6.45991 2.29102 5.7897 2.2915 5.26521 2.33435Z" fill="#62748E"/>
</svg>
