<svg width="20" height="20" viewBox="0 0 20 20" fill="none" xmlns="http://www.w3.org/2000/svg">
<path fill-rule="evenodd" clip-rule="evenodd" d="M6.66406 0.208984C7.00924 0.208984 7.28906 0.488806 7.28906 0.833984V1.06231C7.95694 1.04231 8.73034 1.04232 9.63578 1.04232H10.359C11.2645 1.04232 12.0379 1.04231 12.7057 1.06231V0.833984C12.7057 0.488806 12.9856 0.208984 13.3307 0.208984C13.6759 0.208984 13.9557 0.488806 13.9557 0.833984V1.13977C14.6976 1.2193 15.319 1.36732 15.8844 1.65541C16.9428 2.19469 17.8034 3.05521 18.3426 4.11362C18.6675 4.75119 18.8143 5.46002 18.8855 6.33243C18.9557 7.19167 18.9557 8.26283 18.9557 9.63902V10.3623C18.9557 11.7385 18.9557 12.8096 18.8855 13.6689C18.8143 14.5413 18.6675 15.2501 18.3426 15.8877C17.8034 16.9461 16.9428 17.8066 15.8844 18.3459C15.2469 18.6708 14.538 18.8175 13.6656 18.8888C12.8064 18.959 11.7352 18.959 10.359 18.959H9.63576C8.25957 18.959 7.18841 18.959 6.32918 18.8888C5.45677 18.8175 4.74794 18.6708 4.11037 18.3459C3.05195 17.8066 2.19144 16.9461 1.65215 15.8877C1.32729 15.2501 1.18054 14.5413 1.10926 13.6689C1.03906 12.8096 1.03906 11.7385 1.03906 10.3623V9.63903C1.03906 8.26284 1.03906 7.19167 1.10926 6.33243C1.18054 5.46002 1.32729 4.75119 1.65215 4.11362C2.19144 3.05521 3.05195 2.19469 4.11037 1.65541C4.67577 1.36732 5.2972 1.2193 6.03906 1.13977V0.833984C6.03906 0.488806 6.31888 0.208984 6.66406 0.208984ZM6.03906 2.39802C5.45547 2.46999 5.0346 2.58739 4.67785 2.76916C3.85465 3.18861 3.18536 3.8579 2.76591 4.68111C2.5458 5.1131 2.42007 5.63911 2.35511 6.43422C2.28955 7.23663 2.28906 8.25687 2.28906 9.66732V10.334C2.28906 11.7444 2.28955 12.7647 2.35511 13.5671C2.42007 14.3622 2.5458 14.8882 2.76591 15.3202C3.18536 16.1434 3.85465 16.8127 4.67785 17.2321C5.10984 17.4522 5.63586 17.578 6.43097 17.6429C7.23337 17.7085 8.25362 17.709 9.66406 17.709H10.3307C11.7412 17.709 12.7614 17.7085 13.5638 17.6429C14.3589 17.578 14.885 17.4522 15.3169 17.2321C16.1401 16.8127 16.8094 16.1434 17.2289 15.3202C17.449 14.8882 17.5747 14.3622 17.6397 13.5671C17.7052 12.7647 17.7057 11.7444 17.7057 10.334V9.66732C17.7057 8.25687 17.7052 7.23663 17.6397 6.43422C17.5747 5.63911 17.449 5.1131 17.2289 4.68111C16.8094 3.8579 16.1401 3.18861 15.3169 2.76916C14.9602 2.58739 14.5393 2.46999 13.9557 2.39802V3.33398C13.9557 3.67916 13.6759 3.95898 13.3307 3.95898C12.9856 3.95898 12.7057 3.67916 12.7057 3.33398V2.31282C12.0564 2.29254 11.2824 2.29232 10.3307 2.29232H9.66406C8.71241 2.29232 7.93839 2.29254 7.28906 2.31282V3.33398C7.28906 3.67916 7.00924 3.95898 6.66406 3.95898C6.31888 3.95898 6.03906 3.67916 6.03906 3.33398V2.39802ZM4.78906 6.66732C4.78906 6.32214 5.06888 6.04232 5.41406 6.04232H14.5807C14.9259 6.04232 15.2057 6.32214 15.2057 6.66732C15.2057 7.0125 14.9259 7.29232 14.5807 7.29232H5.41406C5.06888 7.29232 4.78906 7.0125 4.78906 6.66732ZM5.20573 10.4173C5.20573 9.84202 5.6721 9.37565 6.2474 9.37565C6.82269 9.37565 7.28906 9.84202 7.28906 10.4173C7.28906 10.9926 6.82269 11.459 6.2474 11.459C5.6721 11.459 5.20573 10.9926 5.20573 10.4173ZM8.95573 10.4173C8.95573 9.84202 9.4221 9.37565 9.9974 9.37565C10.5727 9.37565 11.0391 9.84202 11.0391 10.4173C11.0391 10.9926 10.5727 11.459 9.9974 11.459C9.4221 11.459 8.95573 10.9926 8.95573 10.4173ZM12.7057 10.4173C12.7057 9.84202 13.1721 9.37565 13.7474 9.37565C14.3227 9.37565 14.7891 9.84202 14.7891 10.4173C14.7891 10.9926 14.3227 11.459 13.7474 11.459C13.1721 11.459 12.7057 10.9926 12.7057 10.4173ZM5.20573 13.7507C5.20573 13.1754 5.6721 12.709 6.2474 12.709C6.82269 12.709 7.28906 13.1754 7.28906 13.7507C7.28906 14.3259 6.82269 14.7923 6.2474 14.7923C5.6721 14.7923 5.20573 14.3259 5.20573 13.7507ZM8.95573 13.7507C8.95573 13.1754 9.4221 12.709 9.9974 12.709C10.5727 12.709 11.0391 13.1754 11.0391 13.7507C11.0391 14.3259 10.5727 14.7923 9.9974 14.7923C9.4221 14.7923 8.95573 14.3259 8.95573 13.7507ZM12.7057 13.7507C12.7057 13.1754 13.1721 12.709 13.7474 12.709C14.3227 12.709 14.7891 13.1754 14.7891 13.7507C14.7891 14.3259 14.3227 14.7923 13.7474 14.7923C13.1721 14.7923 12.7057 14.3259 12.7057 13.7507Z" fill="#4D637C"/>
</svg>
