<svg width="20" height="20" viewBox="0 0 20 20" fill="none" xmlns="http://www.w3.org/2000/svg">
<path fill-rule="evenodd" clip-rule="evenodd" d="M10 1.04102C10.3452 1.04102 10.625 1.32084 10.625 1.66602V2.70768H11.6667C13.8528 2.70768 15.625 4.47989 15.625 6.66602C15.625 7.01119 15.3452 7.29102 15 7.29102C14.6548 7.29102 14.375 7.01119 14.375 6.66602C14.375 5.17024 13.1624 3.95768 11.6667 3.95768H10.625L10.625 9.54887L13.2108 10.4108C14.6525 10.8914 15.625 12.2406 15.625 13.7603C15.625 15.7103 14.0443 17.291 12.0943 17.291H10.625V18.3327C10.625 18.6779 10.3452 18.9577 10 18.9577C9.65482 18.9577 9.375 18.6779 9.375 18.3327V17.291H8.33333C6.14721 17.291 4.375 15.5188 4.375 13.3327C4.375 12.9875 4.65482 12.7077 5 12.7077C5.34518 12.7077 5.625 12.9875 5.625 13.3327C5.625 14.8285 6.83756 16.041 8.33333 16.041H9.375V10.4498L6.78919 9.58789C5.34746 9.10731 4.375 7.75809 4.375 6.23838C4.375 4.28843 5.95575 2.70768 7.90569 2.70768H9.375V1.66602C9.375 1.32084 9.65482 1.04102 10 1.04102ZM9.375 3.95768H7.90569C6.6461 3.95768 5.625 4.97878 5.625 6.23838C5.625 7.22006 6.25317 8.0916 7.18448 8.40203L9.375 9.13221L9.375 3.95768ZM10.625 10.8665V16.041H12.0943C13.3539 16.041 14.375 15.0199 14.375 13.7603C14.375 12.7786 13.7468 11.9071 12.8155 11.5967L10.625 10.8665Z" fill="#4D637C"/>
</svg>
