<svg width="21" height="20" viewBox="0 0 21 20" fill="none" xmlns="http://www.w3.org/2000/svg">
<path fill-rule="evenodd" clip-rule="evenodd" d="M9.27151 1.04102L10.9661 1.04102C11.3113 1.04102 11.5911 1.32084 11.5911 1.66602C11.5911 2.01119 11.3113 2.29102 10.9661 2.29102H9.29948C8.12239 2.29102 7.27716 2.2915 6.61372 2.34571C5.95757 2.39932 5.53445 2.50234 5.1916 2.67703C4.52519 3.01659 3.98338 3.55839 3.64383 4.2248C3.46914 4.56766 3.36611 4.99077 3.3125 5.64692C3.2583 6.31036 3.25781 7.15559 3.25781 8.33268V11.666C3.25781 12.8431 3.2583 13.6883 3.3125 14.3518C3.36611 15.0079 3.46914 15.431 3.64383 15.7739C3.98338 16.4403 4.52519 16.9821 5.1916 17.3217C5.53445 17.4964 5.95757 17.5994 6.61372 17.653C7.27716 17.7072 8.12239 17.7077 9.29948 17.7077H12.6328C13.8099 17.7077 14.6551 17.7072 15.3186 17.653C15.9747 17.5994 16.3978 17.4964 16.7407 17.3217C17.4071 16.9821 17.9489 16.4403 18.2885 15.7739C18.4632 15.431 18.5662 15.0079 18.6198 14.3518C18.674 13.6883 18.6745 12.8431 18.6745 11.666V9.99935C18.6745 9.65417 18.9543 9.37435 19.2995 9.37435C19.6447 9.37435 19.9245 9.65417 19.9245 9.99935V11.694C19.9245 12.8371 19.9245 13.7333 19.8656 14.4536C19.8057 15.187 19.6817 15.7929 19.4022 16.3414C18.9428 17.243 18.2098 17.976 17.3082 18.4354C16.7597 18.7149 16.1538 18.8389 15.4204 18.8988C14.7001 18.9577 13.8039 18.9577 12.6608 18.9577H9.2715C8.1284 18.9577 7.23221 18.9577 6.51193 18.8988C5.77847 18.8389 5.17255 18.7149 4.62411 18.4354C3.7225 17.976 2.98947 17.243 2.53007 16.3414C2.25063 15.7929 2.12658 15.187 2.06666 14.4536C2.00781 13.7333 2.00781 12.8371 2.00781 11.694V8.30472C2.00781 7.16162 2.00781 6.26542 2.06666 5.54513C2.12658 4.81168 2.25063 4.20575 2.53007 3.65731C2.98947 2.7557 3.7225 2.02267 4.62411 1.56328C5.17255 1.28383 5.77847 1.15978 6.51193 1.09986C7.23222 1.04101 8.12841 1.04101 9.27151 1.04102ZM17.5001 3.25223C17.1028 2.89109 16.4961 2.89109 16.0988 3.25223C16.0832 3.2664 16.0629 3.28649 15.9914 3.35796L15.7356 3.61379C15.7154 4.51061 16.4549 5.25013 17.3517 5.22991L17.6075 4.97407C17.679 4.9026 17.6991 4.88226 17.7133 4.86667C18.0744 4.46937 18.0744 3.86266 17.7133 3.46536C17.6991 3.44977 17.679 3.42943 17.6075 3.35796C17.5361 3.28649 17.5157 3.2664 17.5001 3.25223ZM18.0792 6.27016L18.5019 5.8475C18.558 5.79137 18.6013 5.74815 18.6382 5.70746C19.4328 4.8334 19.4328 3.49863 18.6382 2.62457C18.6012 2.58388 18.558 2.54064 18.5018 2.48449L18.481 2.46361C18.4248 2.40747 18.3816 2.36424 18.3409 2.32725C17.4669 1.53275 16.1321 1.53275 15.258 2.32725C15.2174 2.36423 15.1741 2.40746 15.118 2.46359L14.6954 2.88625C14.6921 2.88943 14.6889 2.89266 14.6857 2.89591L11.5688 6.01284C11.5564 6.02524 11.5441 6.03749 11.532 6.04959C11.1782 6.40332 10.95 6.63143 10.762 6.89305C10.5953 7.12487 10.4542 7.37404 10.3412 7.6362C10.2136 7.93208 10.1354 8.2451 10.0141 8.73051C10.01 8.74711 10.0058 8.7639 10.0015 8.78091L9.52647 10.6811C9.47323 10.8941 9.53563 11.1194 9.69087 11.2746C9.84611 11.4299 10.0714 11.4923 10.2844 11.439L12.1846 10.964C12.2016 10.9597 12.2184 10.9555 12.235 10.9514C12.7204 10.8301 13.0334 10.7519 13.3293 10.6243C13.5915 10.5112 13.8406 10.3702 14.0724 10.2035C14.3341 10.0155 14.5622 9.78729 14.9159 9.43347C14.928 9.42136 14.9403 9.40912 14.9527 9.39672L18.0696 6.27977C18.0728 6.2766 18.0761 6.2734 18.0792 6.27016ZM16.2926 6.28902C15.5548 6.00098 14.9645 5.41071 14.6765 4.67291L12.4527 6.89672C12.05 7.29941 11.8986 7.45348 11.7769 7.62267C11.6629 7.78129 11.5664 7.95177 11.489 8.13115C11.4065 8.32249 11.3523 8.53159 11.2142 9.08408L10.9918 9.9737L11.8814 9.7513C12.4339 9.61318 12.643 9.55896 12.8344 9.47645C13.0137 9.39911 13.1842 9.30258 13.3428 9.18856C13.512 9.06693 13.6661 8.91552 14.0688 8.51284L16.2926 6.28902Z" fill="#62748E"/>
</svg>
