<svg width="147" height="146" viewBox="0 0 147 146" fill="none" xmlns="http://www.w3.org/2000/svg">
<g id="image-3">
<path id="Vector (Stroke)" fill-rule="evenodd" clip-rule="evenodd" d="M70.7326 7.60352H76.0122C86.0584 7.60349 93.878 7.60347 100.15 8.11595C106.519 8.63629 111.693 9.70759 116.348 12.0791C124.074 16.0159 130.356 22.2976 134.293 30.024C136.664 34.6783 137.735 39.8528 138.256 46.2214C138.768 52.4938 138.768 60.3132 138.768 70.3594V75.6393C138.768 85.6855 138.768 93.5049 138.256 99.7773C137.735 106.146 136.664 111.32 134.293 115.975C130.356 123.701 124.074 129.983 116.348 133.92C111.693 136.291 106.519 137.362 100.15 137.883C93.878 138.395 86.0585 138.395 76.0123 138.395H70.7325C60.6863 138.395 52.8668 138.395 46.5944 137.883C40.2258 137.362 35.0513 136.291 30.3971 133.92C22.6707 129.983 16.3889 123.701 12.4521 115.975C10.0806 111.32 9.00933 106.146 8.489 99.7773C7.97652 93.5049 7.97654 85.6854 7.97656 75.6391V70.3595C7.97654 60.3133 7.97652 52.4938 8.489 46.2214C9.00933 39.8528 10.0806 34.6783 12.4521 30.024C16.3889 22.2976 22.6707 16.0159 30.3971 12.0791C35.0513 9.70759 40.2258 8.63629 46.5944 8.11595C52.8668 7.60347 60.6863 7.60349 70.7326 7.60352ZM47.3375 17.2106C41.5332 17.6849 37.6932 18.6027 34.5397 20.2095C28.5303 23.2715 23.6445 28.1573 20.5825 34.1667C18.9758 37.3202 18.0579 41.1601 17.5837 46.9644C17.1051 52.822 17.1016 60.2698 17.1016 70.566V75.4327C17.1016 85.7289 17.1051 93.1767 17.5837 99.0343C17.7194 100.695 17.8914 102.195 18.1054 103.564L38.4629 83.2065C40.7295 80.9398 42.6227 79.0465 44.2967 77.624C46.0437 76.1394 47.8446 74.9058 50.0085 74.1921C53.3315 73.0961 56.9145 73.0697 60.2534 74.1165C62.4275 74.7981 64.2464 76.0049 66.0152 77.4635C67.71 78.8612 69.631 80.7263 71.9308 82.9593L88.449 98.9965L91.8685 95.577C94.1671 93.2782 96.0857 91.3596 97.7809 89.9204C99.5488 88.4194 101.372 87.1735 103.562 86.4619C106.922 85.3702 110.541 85.3702 113.901 86.4619C116.091 87.1735 117.914 88.419 119.682 89.9195C121.377 91.3583 123.294 93.2762 125.592 95.5739L129.153 99.1347C129.156 99.1013 129.158 99.0678 129.161 99.0343C129.64 93.1767 129.643 85.7289 129.643 75.4327V70.566C129.643 60.2698 129.64 52.822 129.161 46.9644C128.687 41.1601 127.769 37.3202 126.162 34.1667C123.1 28.1573 118.214 23.2715 112.205 20.2095C109.052 18.6027 105.212 17.6849 99.4073 17.2106C93.5498 16.7321 86.102 16.7285 75.8057 16.7285H70.9391C60.6428 16.7285 53.195 16.7321 47.3375 17.2106ZM127.022 109.908L119.271 102.157C116.808 99.6949 115.153 98.0446 113.776 96.8759C112.44 95.7417 111.67 95.3314 111.082 95.1403C109.554 94.6441 107.909 94.6441 106.382 95.1403C105.794 95.3313 105.023 95.7417 103.687 96.8766C102.309 98.0459 100.653 99.697 98.1898 102.16L94.9486 105.402L114.218 124.671C119.306 121.597 123.45 117.156 126.162 111.832C126.474 111.22 126.76 110.582 127.022 109.908ZM104.77 128.128L85.294 108.652L65.7063 89.6342C63.2406 87.2403 61.5845 85.6373 60.2096 84.5035C58.8764 83.404 58.1093 83.0072 57.5235 82.8236C56.0058 82.3477 54.3772 82.3598 52.8667 82.8579C52.2837 83.0502 51.5225 83.4583 50.2057 84.5774C48.8476 85.7314 47.2154 87.3587 44.7854 89.7887L21.8486 112.726C21.6795 112.895 21.5004 113.048 21.3133 113.185C24.3949 118.575 28.9878 122.96 34.5397 125.789C37.6932 127.396 41.5332 128.314 47.3375 128.788C53.195 129.267 60.6428 129.27 70.9391 129.27H75.8057C86.102 129.27 93.5498 129.267 99.4073 128.788C101.412 128.624 103.182 128.408 104.77 128.128ZM97.7057 41.0618C93.5061 41.0618 90.1016 44.4664 90.1016 48.666C90.1016 52.8657 93.5061 56.2702 97.7057 56.2702C101.905 56.2702 105.31 52.8657 105.31 48.666C105.31 44.4664 101.905 41.0618 97.7057 41.0618ZM80.9766 48.666C80.9766 39.4268 88.4665 31.9368 97.7057 31.9368C106.945 31.9368 114.435 39.4268 114.435 48.666C114.435 57.9053 106.945 65.3952 97.7057 65.3952C88.4665 65.3952 80.9766 57.9053 80.9766 48.666Z" fill="#62748E"/>
</g>
</svg>
