<svg width="21" height="20" viewBox="0 0 21 20" fill="none" xmlns="http://www.w3.org/2000/svg">
<path fill-rule="evenodd" clip-rule="evenodd" d="M11.888 2.30974C11.6054 2.29223 11.2343 2.29103 10.6615 2.29103C9.5723 2.29103 8.7902 2.29144 8.17478 2.33805C7.56588 2.38417 7.17118 2.47286 6.84938 2.62295C6.0949 2.97482 5.48849 3.58124 5.13661 4.33572C4.98652 4.65752 4.89783 5.05222 4.85171 5.66112C4.80511 6.27654 4.80469 7.05864 4.80469 8.14784V11.666C4.80469 12.8431 4.80517 13.6883 4.85938 14.3518C4.91299 15.0079 5.01601 15.4311 5.19071 15.7739C5.53026 16.4403 6.07206 16.9821 6.73847 17.3217C7.08133 17.4964 7.50444 17.5994 8.16059 17.653C8.82404 17.7072 9.66927 17.7077 10.8464 17.7077C12.0234 17.7077 12.8687 17.7072 13.5321 17.653C14.1883 17.5994 14.6114 17.4964 14.9542 17.3217C15.6206 16.9821 16.1625 16.4403 16.502 15.7739C16.6767 15.4311 16.7797 15.0079 16.8333 14.3518C16.8875 13.6883 16.888 12.8431 16.888 11.666V8.59412C16.888 7.98973 16.8867 7.59329 16.8676 7.29105H15.1543C14.7092 7.29106 14.3377 7.29107 14.0341 7.26627C13.7176 7.2404 13.4203 7.18448 13.1393 7.04127C12.7081 6.82156 12.3575 6.47098 12.1378 6.03978C11.9946 5.75873 11.9387 5.46151 11.9128 5.14494C11.888 4.84142 11.888 4.46988 11.888 4.02476V2.30974ZM13.138 2.63263V3.99938C13.138 4.47641 13.1385 4.79659 13.1587 5.04315C13.1782 5.28242 13.2131 5.39682 13.2516 5.47229C13.3514 5.66829 13.5108 5.82765 13.7068 5.92752C13.7822 5.96597 13.8967 6.00087 14.1359 6.02042C14.3825 6.04057 14.7027 6.04105 15.1797 6.04105H16.5464C16.4924 5.92708 16.4322 5.81592 16.3661 5.70807C16.1561 5.36532 15.8601 5.06368 15.1185 4.32201L14.8029 4.00644C14.1163 3.31981 13.8371 3.04549 13.5233 2.84562C13.3992 2.76656 13.2705 2.69546 13.138 2.63263ZM10.7379 1.04102C11.6086 1.04093 12.1446 1.04087 12.6577 1.15464C13.2033 1.27562 13.7236 1.4911 14.1949 1.79136C14.6382 2.07374 15.0171 2.45278 15.6327 3.06853C15.6506 3.08634 15.6686 3.10435 15.6868 3.12256L16.0023 3.43813C16.022 3.4578 16.0415 3.47724 16.0607 3.49648C16.7257 4.16135 17.1352 4.57072 17.4319 5.05494C17.6946 5.48366 17.8882 5.95107 18.0056 6.43999C18.1382 6.99221 18.1381 7.57122 18.138 8.5116C18.138 8.5388 18.138 8.5663 18.138 8.59412V11.694C18.138 12.8371 18.138 13.7333 18.0792 14.4536C18.0193 15.187 17.8952 15.793 17.6158 16.3414C17.1564 17.243 16.4233 17.976 15.5217 18.4354C14.9733 18.7149 14.3674 18.8389 13.6339 18.8988C12.9136 18.9577 12.0174 18.9577 10.8743 18.9577H10.8184C9.67528 18.9577 8.77909 18.9577 8.0588 18.8988C7.32535 18.8389 6.71943 18.7149 6.17098 18.4354C5.26937 17.976 4.53634 17.243 4.07695 16.3414C3.7975 15.793 3.67346 15.187 3.61353 14.4536C3.55468 13.7333 3.55468 12.8371 3.55469 11.694V8.12199C3.55468 7.0642 3.55468 6.23486 3.60528 5.56672C3.65679 4.88663 3.76334 4.32286 4.00376 3.80738C4.47983 2.78661 5.30027 1.96616 6.32104 1.49009C6.83652 1.24968 7.4003 1.14313 8.08038 1.09162C8.74852 1.04102 9.57786 1.04102 10.6357 1.04103L10.6615 1.04103C10.6873 1.04103 10.7127 1.04102 10.7379 1.04102ZM10.4044 8.72408C10.6485 8.48001 11.0442 8.48001 11.2883 8.72408L13.3716 10.8074C13.6157 11.0515 13.6157 11.4472 13.3716 11.6913C13.1276 11.9354 12.7318 11.9354 12.4877 11.6913L11.4714 10.6749V14.166C11.4714 14.5112 11.1915 14.791 10.8464 14.791C10.5012 14.791 10.2214 14.5112 10.2214 14.166V10.6749L9.20496 11.6913C8.96089 11.9354 8.56516 11.9354 8.32108 11.6913C8.077 11.4472 8.077 11.0515 8.32108 10.8074L10.4044 8.72408Z" fill="#62748E"/>
</svg>
