<svg width="20" height="20" viewBox="0 0 20 20" fill="none" xmlns="http://www.w3.org/2000/svg">
<path fill-rule="evenodd" clip-rule="evenodd" d="M10.9417 1.92314C10.3238 1.75218 9.67103 1.75218 9.05309 1.92314C8.73358 2.01153 8.40646 2.17611 7.96161 2.48146C7.51026 2.79126 6.97346 3.22021 6.22321 3.8204L4.55655 5.15374C3.61059 5.9105 3.23268 6.21956 2.96323 6.59128C2.71422 6.93479 2.52896 7.32025 2.41628 7.72929C2.29434 8.1719 2.28908 8.66007 2.28908 9.87148V11.6673C2.28908 12.8444 2.28957 13.6896 2.34377 14.3531C2.39738 15.0092 2.5004 15.4323 2.6751 15.7752C3.01465 16.4416 3.55646 16.9834 4.22286 17.323C4.56572 17.4977 4.98883 17.6007 5.64498 17.6543C5.99587 17.683 6.39762 17.6966 6.87241 17.7031V12.4796C6.87241 12.1092 6.8724 11.8 6.88972 11.5462C6.90775 11.2819 6.94662 11.0323 7.04686 10.7903C7.27945 10.2288 7.72557 9.78269 8.2871 9.5501C8.52909 9.44986 8.77869 9.41099 9.04294 9.39296C9.29679 9.37564 9.60598 9.37565 9.97636 9.37565H10.0185C10.3888 9.37565 10.698 9.37564 10.9519 9.39296C11.2161 9.41099 11.4657 9.44986 11.7077 9.5501C12.2693 9.78269 12.7154 10.2288 12.948 10.7903C13.0482 11.0323 13.0871 11.2819 13.1051 11.5462C13.1224 11.8 13.1224 12.1092 13.1224 12.4796V17.7031C13.5972 17.6966 13.999 17.683 14.3498 17.6543C15.006 17.6007 15.4291 17.4977 15.772 17.323C16.4384 16.9834 16.9802 16.4416 17.3197 15.7752C17.4944 15.4323 17.5974 15.0092 17.6511 14.3531C17.7053 13.6896 17.7057 12.8444 17.7057 11.6673V9.87148C17.7057 8.66007 17.7005 8.1719 17.5786 7.72929C17.4659 7.32025 17.2806 6.93479 17.0316 6.59128C16.7621 6.21956 16.3842 5.9105 15.4383 5.15373L13.7716 3.8204C13.0214 3.22021 12.4846 2.79126 12.0332 2.48146C11.5884 2.17611 11.2612 2.01153 10.9417 1.92314ZM12.5335 18.958C13.2886 18.955 13.9183 18.9437 14.4516 18.9001C15.1851 18.8402 15.791 18.7162 16.3394 18.4367C17.2411 17.9773 17.9741 17.2443 18.4335 16.3427C18.7129 15.7942 18.837 15.1883 18.8969 14.4549C18.9558 13.7346 18.9557 12.8384 18.9557 11.6953V9.87148C18.9557 9.83914 18.9558 9.80717 18.9558 9.77554C18.9559 8.69061 18.956 8.02285 18.7837 7.3973C18.6312 6.8439 18.3806 6.32239 18.0437 5.85764C17.6628 5.3323 17.1413 4.91521 16.2941 4.23757C16.2694 4.21782 16.2444 4.19785 16.2191 4.17765L14.5334 2.82905C13.8064 2.24744 13.2341 1.78964 12.7406 1.45087C12.2362 1.10469 11.7797 0.858002 11.275 0.718387C10.439 0.4871 9.55584 0.4871 8.7198 0.718387C8.21514 0.858002 7.75858 1.10469 7.25422 1.45087C6.76068 1.78964 6.18844 2.24744 5.46144 2.82904L3.77568 4.17765C3.75043 4.19785 3.72545 4.21782 3.70076 4.23757C2.85348 4.91521 2.33198 5.3323 1.95117 5.85764C1.61427 6.32239 1.36362 6.8439 1.21117 7.3973C1.03884 8.02285 1.03893 8.69062 1.03907 9.77555C1.03907 9.80717 1.03908 9.83915 1.03908 9.87148L1.03908 11.6953C1.03908 12.8384 1.03907 13.7346 1.09792 14.4549C1.15785 15.1883 1.28189 15.7942 1.56134 16.3427C2.02073 17.2443 2.75376 17.9773 3.65537 18.4367C4.20382 18.7162 4.80974 18.8402 5.54319 18.9001C6.07651 18.9437 6.70627 18.955 7.46129 18.958C7.47324 18.9586 7.48529 18.959 7.49741 18.959C7.50802 18.959 7.51857 18.9587 7.52904 18.9582C7.77365 18.959 8.03124 18.959 8.30276 18.959H11.6921C11.9636 18.959 12.2212 18.959 12.4658 18.9582C12.4763 18.9587 12.4868 18.959 12.4974 18.959C12.5095 18.959 12.5216 18.9586 12.5335 18.958ZM11.8724 17.709V12.5007C11.8724 12.1038 11.8721 11.8375 11.858 11.6313C11.8443 11.4307 11.8198 11.333 11.7931 11.2687C11.6874 11.0135 11.4846 10.8107 11.2294 10.7049C11.1651 10.6783 11.0674 10.6537 10.8668 10.6401C10.6606 10.626 10.3942 10.6257 9.99741 10.6257C9.60058 10.6257 9.33425 10.626 9.12803 10.6401C8.92743 10.6537 8.82975 10.6783 8.76545 10.7049C8.51021 10.8107 8.30743 11.0135 8.2017 11.2687C8.17507 11.333 8.15051 11.4307 8.13682 11.6313C8.12275 11.8375 8.12241 12.1038 8.12241 12.5007V17.709C8.19068 17.709 8.26012 17.709 8.33075 17.709H11.6641C11.7347 17.709 11.8041 17.709 11.8724 17.709Z" fill="#4D637C"/>
</svg>
