<svg width="20" height="20" viewBox="0 0 20 20" fill="none" xmlns="http://www.w3.org/2000/svg">
<path fill-rule="evenodd" clip-rule="evenodd" d="M9.63578 1.04102H10.359C11.7352 1.04101 12.8064 1.04101 13.6656 1.11121C14.538 1.18249 15.2469 1.32924 15.8844 1.6541C16.9428 2.19339 17.8034 3.05391 18.3426 4.11232C18.6675 4.74989 18.8143 5.45872 18.8855 6.33113C18.9557 7.19036 18.9557 8.26153 18.9557 9.63772V10.361C18.9557 11.7372 18.9557 12.8083 18.8855 13.6676C18.8143 14.54 18.6675 15.2488 18.3426 15.8864C17.8034 16.9448 16.9428 17.8053 15.8844 18.3446C15.2469 18.6695 14.538 18.8162 13.6656 18.8875C12.8064 18.9577 11.7352 18.9577 10.359 18.9577H9.63576C8.25957 18.9577 7.18841 18.9577 6.32918 18.8875C5.45677 18.8162 4.74794 18.6695 4.11037 18.3446C3.05195 17.8053 2.19144 16.9448 1.65215 15.8864C1.32729 15.2488 1.18054 14.54 1.10926 13.6676C1.03906 12.8083 1.03906 11.7372 1.03906 10.361V9.63773C1.03906 8.26153 1.03906 7.19037 1.10926 6.33113C1.18054 5.45872 1.32729 4.74989 1.65215 4.11232C2.19144 3.05391 3.05195 2.19339 4.11037 1.6541C4.74794 1.32924 5.45677 1.18249 6.32918 1.11121C7.18842 1.04101 8.25958 1.04101 9.63578 1.04102ZM6.43097 2.35706C5.63586 2.42202 5.10984 2.54775 4.67785 2.76786C3.85465 3.18731 3.18536 3.8566 2.76591 4.67981C2.5458 5.11179 2.42007 5.63781 2.35511 6.43292C2.28955 7.23533 2.28906 8.25557 2.28906 9.66602V10.3327C2.28906 11.7431 2.28955 12.7634 2.35511 13.5658C2.3737 13.7933 2.39726 13.9987 2.42658 14.1863L5.21527 11.3976C5.52577 11.0871 5.78511 10.8277 6.01443 10.6329C6.25374 10.4295 6.50044 10.2605 6.79686 10.1627C7.25207 10.0126 7.74289 10.009 8.20027 10.1524C8.4981 10.2458 8.74726 10.4111 8.98956 10.6109C9.22173 10.8023 9.48487 11.0578 9.79992 11.3637L12.0627 13.5606L12.5311 13.0922C12.846 12.7773 13.1088 12.5145 13.341 12.3173C13.5832 12.1117 13.833 11.941 14.133 11.8435C14.5933 11.694 15.089 11.694 15.5493 11.8435C15.8493 11.941 16.099 12.1116 16.3412 12.3172C16.5733 12.5143 16.836 12.777 17.1508 13.0918L17.6386 13.5795C17.6389 13.575 17.6393 13.5704 17.6397 13.5658C17.7052 12.7634 17.7057 11.7431 17.7057 10.3327V9.66602C17.7057 8.25557 17.7052 7.23533 17.6397 6.43292C17.5747 5.63781 17.449 5.11179 17.2289 4.67981C16.8094 3.8566 16.1401 3.18731 15.3169 2.76786C14.885 2.54775 14.3589 2.42202 13.5638 2.35706C12.7614 2.2915 11.7412 2.29102 10.3307 2.29102H9.66406C8.25362 2.29102 7.23337 2.2915 6.43097 2.35706ZM17.3466 15.0554L16.2848 13.9936C15.9475 13.6563 15.7208 13.4302 15.5322 13.2701C15.3492 13.1147 15.2436 13.0585 15.163 13.0324C14.9538 12.9644 14.7285 12.9644 14.5193 13.0324C14.4387 13.0585 14.3331 13.1147 14.15 13.2702C13.9614 13.4304 13.7345 13.6566 13.397 13.994L12.953 14.438L15.5926 17.0776C16.2897 16.6566 16.8573 16.0481 17.2289 15.3189C17.2716 15.235 17.3108 15.1476 17.3466 15.0554ZM14.2985 17.5512L11.6305 14.8832L8.94724 12.2781C8.60948 11.9502 8.38262 11.7306 8.19428 11.5753C8.01164 11.4246 7.90656 11.3703 7.82631 11.3451C7.61841 11.28 7.39531 11.2816 7.1884 11.3498C7.10853 11.3762 7.00426 11.4321 6.82387 11.5854C6.63784 11.7435 6.41424 11.9664 6.08137 12.2993L2.93934 15.4413C2.91617 15.4645 2.89165 15.4854 2.86601 15.5042C3.28815 16.2426 3.91732 16.8433 4.67785 17.2308C5.10984 17.4509 5.63586 17.5767 6.43097 17.6416C7.23337 17.7072 8.25362 17.7077 9.66406 17.7077H10.3307C11.7412 17.7077 12.7614 17.7072 13.5638 17.6416C13.8384 17.6192 14.0809 17.5895 14.2985 17.5512ZM13.3307 5.62435C12.7554 5.62435 12.2891 6.09072 12.2891 6.66602C12.2891 7.24131 12.7554 7.70768 13.3307 7.70768C13.906 7.70768 14.3724 7.24131 14.3724 6.66602C14.3724 6.09072 13.906 5.62435 13.3307 5.62435ZM11.0391 6.66602C11.0391 5.40036 12.0651 4.37435 13.3307 4.37435C14.5964 4.37435 15.6224 5.40036 15.6224 6.66602C15.6224 7.93167 14.5964 8.95768 13.3307 8.95768C12.0651 8.95768 11.0391 7.93167 11.0391 6.66602Z" fill="#4D637C"/>
</svg>
