<svg width="24" height="32" viewBox="0 0 24 32" fill="none" xmlns="http://www.w3.org/2000/svg">
<path fill-rule="evenodd" clip-rule="evenodd" d="M15.6008 15.4562C15.6555 15.4865 15.7132 15.511 15.773 15.5293C18.8938 17.258 17.2236 19.7779 14.9672 21.2579L14.9379 21.2725H14.9233C16.1974 17.9468 4.78517 17.1117 2.85156 13.9917C2.8662 14.021 2.88083 14.0356 2.89546 14.0649C2.83692 12.7167 3.64275 11.6035 4.99008 10.666C2.558 13.8893 11.7913 13.9039 15.5965 15.457" fill="url(#paint0_linear_3405_2454)"/>
<path fill-rule="evenodd" clip-rule="evenodd" d="M15.7655 15.5332C22.6804 17.54 25.3612 23.1368 17.3918 25.5981C11.7098 27.3415 2.53675 26.5796 1.87729 31.9999C-1.16948 27.6953 3.21085 25.5835 8.55798 23.767C16.3518 22.0529 19.8678 17.8034 15.7655 15.5332Z" fill="url(#paint1_linear_3405_2454)"/>
<path fill-rule="evenodd" clip-rule="evenodd" d="M19.7624 0.00344176C25.9007 -0.0258293 24.7729 5.65877 20.1429 6.24419C14.1948 7.28417 2.65086 9.15924 2.88503 14.0785C-2.47673 7.10511 14.1802 0.217811 19.7589 0" fill="url(#paint2_linear_3405_2454)"/>
<defs>
<linearGradient id="paint0_linear_3405_2454" x1="20.9419" y1="22.8422" x2="7.5752" y2="5.48871" gradientUnits="userSpaceOnUse">
<stop stop-color="#000B31"/>
<stop offset="0.344" stop-color="#2375B1"/>
<stop offset="0.957" stop-color="#0CAFDE"/>
<stop offset="1" stop-color="#1B75BB"/>
</linearGradient>
<linearGradient id="paint1_linear_3405_2454" x1="23.944" y1="15.5991" x2="5.99104" y2="37.7565" gradientUnits="userSpaceOnUse">
<stop stop-color="#F3B51B"/>
<stop offset="0.118" stop-color="#E19C1C"/>
<stop offset="0.296" stop-color="#F3B51B"/>
</linearGradient>
<linearGradient id="paint2_linear_3405_2454" x1="-0.00331232" y1="11.0798" x2="12.6798" y2="-1.58402" gradientUnits="userSpaceOnUse">
<stop stop-color="#00579F"/>
<stop offset="1" stop-color="#39D4FF"/>
</linearGradient>
</defs>
</svg>
