<svg width="146" height="32" viewBox="0 0 146 32" fill="none" xmlns="http://www.w3.org/2000/svg">
<path fill-rule="evenodd" clip-rule="evenodd" d="M15.2336 15.4562C15.2883 15.4865 15.346 15.511 15.4058 15.5293C18.5266 17.258 16.8564 19.7779 14.6 21.2579L14.5707 21.2725H14.5561C15.8302 17.9468 4.41798 17.1117 2.48438 13.9917C2.49901 14.021 2.51364 14.0356 2.52828 14.0649C2.46974 12.7167 3.27556 11.6035 4.62289 10.666C2.19081 13.8893 11.4241 13.9039 15.2293 15.457" fill="url(#paint0_linear_3405_928)"/>
<path fill-rule="evenodd" clip-rule="evenodd" d="M15.3983 15.5332C22.3132 17.54 24.9941 23.1368 17.0246 25.5981C11.3426 27.3415 2.16956 26.5796 1.5101 31.9999C-1.53666 27.6953 2.84366 25.5835 8.19079 23.767C15.9846 22.0529 19.5006 17.8034 15.3983 15.5332Z" fill="url(#paint1_linear_3405_928)"/>
<path fill-rule="evenodd" clip-rule="evenodd" d="M19.3952 0.00344176C25.5335 -0.0258293 24.4057 5.65877 19.7757 6.24419C13.8277 7.28417 2.28367 9.15924 2.51784 14.0785C-2.84392 7.10511 13.813 0.217811 19.3917 0" fill="url(#paint2_linear_3405_928)"/>
<path d="M41.2267 19.5716C41.221 20.0837 41.1112 20.5894 40.904 21.0578C40.6968 21.5262 40.3965 21.9476 40.0214 22.2964C39.5341 22.7523 38.9473 23.0883 38.3074 23.2778C37.6996 23.4631 37.0676 23.5569 36.4323 23.5559H36.4177C35.6912 23.5621 34.9686 23.4484 34.2792 23.2192C33.5596 22.9872 32.9063 22.5853 32.3748 22.0476C31.6238 21.2928 31.2025 20.2713 31.2031 19.2066V19.0748C31.2056 18.9884 31.2257 18.9034 31.2622 18.825C31.2986 18.7467 31.3506 18.6765 31.4151 18.6189C31.4795 18.5613 31.5551 18.5175 31.637 18.49C31.719 18.4626 31.8057 18.4521 31.8918 18.4593C32.0668 18.4704 32.2309 18.5479 32.3507 18.6759C32.4705 18.8039 32.537 18.9727 32.5367 19.148V19.2341C32.5426 19.9634 32.8315 20.6619 33.3425 21.1823C33.7424 21.5735 34.2224 21.8733 34.7492 22.0613C35.3003 22.2519 35.8802 22.346 36.4633 22.3394H36.4779C36.9746 22.3486 37.4693 22.2744 37.9415 22.1199C38.4002 21.9832 38.8212 21.7425 39.1717 21.4165C39.6633 20.9381 39.9474 20.2858 39.9629 19.6V19.5561C39.961 19.3832 40.0277 19.2167 40.1486 19.0931C40.2694 18.9695 40.4344 18.899 40.6073 18.8971C40.7801 18.8951 40.9467 18.9619 41.0702 19.0828C41.1938 19.2036 41.2644 19.3686 41.2663 19.5414V19.6L41.2267 19.5716ZM38.5898 10.5914C37.971 10.162 37.2336 9.9366 36.4805 9.94657H36.4366C36.0427 9.94181 35.6511 10.0062 35.2795 10.1368C34.9217 10.2595 34.5927 10.454 34.3127 10.7085C33.9738 11.0497 33.7706 11.5026 33.7411 11.9826C33.7386 12.069 33.7185 12.154 33.682 12.2324C33.6456 12.3108 33.5936 12.3809 33.5291 12.4385C33.4647 12.4961 33.3891 12.54 33.3072 12.5675C33.2252 12.5949 33.1385 12.6054 33.0524 12.5982C32.9664 12.5945 32.882 12.5736 32.8041 12.5367C32.7263 12.4999 32.6567 12.4478 32.5993 12.3836C32.542 12.3195 32.498 12.2444 32.4701 12.163C32.4422 12.0815 32.4309 11.9953 32.4368 11.9094C32.4793 11.1179 32.8072 10.3686 33.3597 9.80023C33.767 9.38657 34.2631 9.07096 34.8103 8.87731C35.3104 8.71417 35.834 8.63504 36.36 8.64314H36.4039C37.4268 8.63043 38.4272 8.94341 39.2604 9.53679C39.709 9.87338 40.0797 10.3028 40.3472 10.7958C40.6146 11.2888 40.7725 11.8337 40.81 12.3933C40.8197 12.5661 40.7604 12.7358 40.645 12.8648C40.5297 12.9939 40.3678 13.0719 40.1949 13.0816C40.0221 13.0913 39.8525 13.0319 39.7234 12.9166C39.5943 12.8012 39.5163 12.6393 39.5066 12.4665C39.4808 12.0928 39.3744 11.7292 39.1949 11.4005C39.0154 11.0718 38.767 10.7858 38.4667 10.5621H38.5837L38.5898 10.5914ZM34.5753 13.9756C35.1578 14.5312 35.8591 14.9469 36.626 15.1913C37.6989 15.4774 38.725 15.9164 39.6728 16.4947C39.8945 16.6462 40.1006 16.8192 40.2883 17.0112C40.3972 17.1361 40.4527 17.2988 40.443 17.4642C40.4333 17.6296 40.3591 17.7846 40.2363 17.8958C40.1135 18.0071 39.952 18.0658 39.7864 18.0593C39.6208 18.0528 39.4644 17.9815 39.3508 17.8609C39.2159 17.7312 39.0739 17.6091 38.9255 17.4951C38.0574 17.0101 37.1319 16.6361 36.1706 16.3819C35.219 16.0701 34.3518 15.5438 33.6361 14.8435C33.4168 14.6123 33.225 14.3567 33.0644 14.0815C33.0162 14.0114 32.9826 13.9322 32.9655 13.8488C32.9485 13.7654 32.9483 13.6794 32.9651 13.596C32.9819 13.5125 33.0152 13.4332 33.0632 13.3629C33.1112 13.2926 33.1727 13.2325 33.2443 13.1864C33.3159 13.1403 33.396 13.1091 33.4798 13.0945C33.5637 13.0799 33.6497 13.0823 33.7326 13.1016C33.8156 13.1208 33.8938 13.1565 33.9627 13.2065C34.0316 13.2565 34.0897 13.3199 34.1337 13.3928C34.2681 13.5918 34.4202 13.7782 34.5882 13.9498V13.9791L34.5753 13.9756Z" fill="#00579F"/>
<path d="M45.0825 23.5715C44.9973 23.5733 44.9126 23.5578 44.8336 23.526C44.7546 23.4942 44.6828 23.4468 44.6226 23.3866C44.5624 23.3264 44.5149 23.2546 44.4831 23.1755C44.4514 23.0965 44.4359 23.0119 44.4376 22.9267V9.27264C44.4376 9.10139 44.5057 8.93716 44.6267 8.81607C44.7478 8.69498 44.9121 8.62695 45.0833 8.62695C45.2546 8.62695 45.4188 8.69498 45.5399 8.81607C45.661 8.93716 45.729 9.10139 45.729 9.27264V22.9267C45.7296 23.0117 45.7132 23.0959 45.6809 23.1746C45.6486 23.2532 45.601 23.3245 45.5408 23.3846C45.4807 23.4446 45.4091 23.492 45.3304 23.5241C45.2518 23.5562 45.1675 23.5723 45.0825 23.5715ZM46.6321 12.2471C46.784 12.1757 46.9577 12.1664 47.1164 12.221C47.275 12.2757 47.4061 12.39 47.4818 12.5398L52.6094 22.6779C52.6833 22.8294 52.6939 23.004 52.6391 23.1634C52.5842 23.3227 52.4682 23.4538 52.3167 23.5276C52.1652 23.6015 51.9906 23.6121 51.8312 23.5572C51.6719 23.5023 51.5409 23.3864 51.467 23.2349L46.3394 13.0968C46.3009 13.0218 46.2781 12.9397 46.2723 12.8556C46.2664 12.7715 46.2776 12.687 46.3053 12.6074C46.333 12.5277 46.3765 12.4545 46.4333 12.3921C46.49 12.3298 46.5589 12.2795 46.6356 12.2445L46.6321 12.2471ZM59.5535 8.70186C59.6303 8.74041 59.6986 8.79399 59.7544 8.85939C59.8102 8.92479 59.8523 9.00069 59.8782 9.08263C59.9041 9.16457 59.9134 9.25088 59.9054 9.33645C59.8974 9.42203 59.8723 9.50513 59.8316 9.58085L54.1324 20.554C54.0928 20.63 54.0387 20.6975 53.973 20.7525C53.9074 20.8075 53.8316 20.8491 53.7499 20.8749C53.6682 20.9006 53.5822 20.91 53.4969 20.9025C53.4115 20.895 53.3285 20.8708 53.2525 20.8312C53.1766 20.7917 53.1091 20.7375 53.0541 20.6719C52.999 20.6063 52.9574 20.5304 52.9317 20.4487C52.9059 20.367 52.8966 20.2811 52.904 20.1957C52.9115 20.1104 52.9357 20.0274 52.9753 19.9514L58.6745 8.97822C58.756 8.82586 58.894 8.71155 59.0588 8.65987C59.2237 8.60819 59.4023 8.62326 59.5561 8.70186H59.5535ZM59.2608 23.5715C59.1757 23.5733 59.091 23.5578 59.012 23.526C58.9329 23.4942 58.8612 23.4468 58.801 23.3866C58.7407 23.3264 58.6933 23.2546 58.6615 23.1755C58.6297 23.0965 58.6142 23.0119 58.616 22.9267V13.4042C58.616 13.2329 58.684 13.0687 58.8051 12.9476C58.9262 12.8265 59.0904 12.7585 59.2617 12.7585C59.4329 12.7585 59.5972 12.8265 59.7182 12.9476C59.8393 13.0687 59.9074 13.2329 59.9074 13.4042V22.9267C59.9104 23.0121 59.8958 23.0972 59.8645 23.1768C59.8332 23.2563 59.7859 23.3286 59.7255 23.389C59.6651 23.4495 59.5929 23.4969 59.5134 23.5283C59.4339 23.5597 59.3488 23.5744 59.2634 23.5715H59.2608Z" fill="#00579F"/>
<path d="M67.7151 11.3084C67.8702 11.3787 67.9912 11.5075 68.0516 11.6668C68.1119 11.826 68.1067 12.0027 68.0371 12.1581L63.2909 23.2191C63.2209 23.3745 63.0921 23.4957 62.9327 23.5561C62.7734 23.6165 62.5966 23.6111 62.4412 23.5411C62.2858 23.4711 62.1646 23.3423 62.1042 23.1829C62.0438 23.0236 62.0492 22.8468 62.1192 22.6914L66.8542 11.645C66.9247 11.4871 67.0546 11.3633 67.2157 11.3003C67.3768 11.2373 67.5561 11.2403 67.7151 11.3084ZM70.8944 18.1208C70.8962 18.206 70.8808 18.2906 70.849 18.3697C70.8172 18.4487 70.7698 18.5204 70.7095 18.5807C70.6493 18.6409 70.5775 18.6884 70.4985 18.7201C70.4194 18.7519 70.3348 18.7674 70.2497 18.7656H66.8361C66.6649 18.7656 66.5006 18.6976 66.3795 18.5765C66.2585 18.4554 66.1904 18.2912 66.1904 18.12C66.1904 17.9487 66.2585 17.7845 66.3795 17.6634C66.5006 17.5423 66.6649 17.4743 66.8361 17.4743H70.2497C70.3347 17.4725 70.4193 17.488 70.4982 17.5197C70.5772 17.5514 70.649 17.5988 70.7092 17.6589C70.7694 17.7191 70.8169 17.7908 70.8487 17.8697C70.8806 17.9486 70.8961 18.0331 70.8944 18.1182V18.1208ZM74.6885 23.5446C74.5331 23.6141 74.3564 23.6193 74.1972 23.559C74.0379 23.4987 73.9091 23.3777 73.8388 23.2226L67.9932 9.5685C67.9232 9.41312 67.9178 9.23631 67.9782 9.07696C68.0386 8.91761 68.1598 8.78876 68.3152 8.71878C68.4706 8.6488 68.6474 8.64342 68.8067 8.70381C68.9661 8.76419 69.0949 8.88541 69.1649 9.04078L75.0105 22.6802C75.0781 22.8377 75.0824 23.0152 75.0224 23.1757C74.9624 23.3362 74.8428 23.4674 74.6885 23.542V23.5446Z" fill="#00579F"/>
<path d="M81.28 8.6565C83.6682 8.6565 85.2652 9.95992 85.2652 12.5384C85.2652 15.1022 83.6389 16.3324 81.324 16.3324H78.0404C77.8692 16.3324 77.7049 16.2644 77.5838 16.1433C77.4628 16.0222 77.3947 15.858 77.3947 15.6867C77.3947 15.5155 77.4628 15.3512 77.5838 15.2302C77.7049 15.1091 77.8692 15.041 78.0404 15.041H81.3222C83.4607 15.041 83.991 13.8254 83.991 12.5065C83.991 11.012 83.3316 9.89879 81.2809 9.89879H77.9113C77.7401 9.89879 77.5758 9.83077 77.4547 9.70968C77.3336 9.58859 77.2656 9.42435 77.2656 9.25311C77.2656 9.08186 77.3336 8.91765 77.4547 8.79656C77.5758 8.67547 77.7401 8.60742 77.9113 8.60742H81.2809L81.28 8.6565ZM79.0417 16.9635C79.1595 16.8452 79.3187 16.7776 79.4855 16.7748C79.6524 16.7721 79.8137 16.8345 79.9353 16.9488L85.7809 22.5008C85.8405 22.5585 85.8882 22.6275 85.9212 22.7036C85.9542 22.7797 85.9719 22.8616 85.9733 22.9446C85.9746 23.0276 85.9596 23.11 85.9291 23.1872C85.8986 23.2644 85.8532 23.3348 85.7955 23.3945C85.7378 23.4541 85.6689 23.5018 85.5928 23.5348C85.5166 23.5678 85.4347 23.5855 85.3518 23.5868C85.2688 23.5882 85.1863 23.5732 85.1092 23.5427C85.032 23.5122 84.9615 23.4668 84.9019 23.4091L79.0563 17.8571C78.9376 17.7398 78.8693 17.5808 78.866 17.4139C78.8626 17.2471 78.9244 17.0855 79.0382 16.9635H79.0417Z" fill="#00579F"/>
<path d="M99.4913 9.28756C99.4931 9.37273 99.4776 9.45737 99.4458 9.53639C99.414 9.61542 99.3666 9.68721 99.3064 9.74745C99.2461 9.80768 99.1744 9.85509 99.0953 9.88688C99.0163 9.91866 98.9316 9.93414 98.8465 9.93238H88.841C88.6698 9.93238 88.5055 9.86436 88.3844 9.74327C88.2633 9.62218 88.1953 9.45794 88.1953 9.2867C88.1953 9.11545 88.2633 8.95121 88.3844 8.83013C88.5055 8.70904 88.6698 8.64101 88.841 8.64101H98.8465C98.9321 8.63799 99.0175 8.65265 99.0972 8.6841C99.1769 8.71555 99.2493 8.76309 99.3098 8.82377C99.3703 8.88444 99.4176 8.95694 99.4489 9.03674C99.4801 9.11653 99.4946 9.20193 99.4913 9.28756ZM93.8506 10.5617C93.9358 10.5599 94.0204 10.5754 94.0995 10.6072C94.1785 10.639 94.2503 10.6864 94.3105 10.7467C94.3707 10.8069 94.4182 10.8787 94.45 10.9577C94.4817 11.0367 94.4972 11.1214 94.4955 11.2065V22.9408C94.4955 23.112 94.4274 23.2762 94.3063 23.3973C94.1852 23.5184 94.021 23.5865 93.8498 23.5865C93.6785 23.5865 93.5142 23.5184 93.3932 23.3973C93.2721 23.2762 93.2041 23.112 93.2041 22.9408V11.2065C93.2023 11.1212 93.2178 11.0364 93.2497 10.9573C93.2816 10.8781 93.3292 10.8063 93.3896 10.746C93.45 10.6858 93.522 10.6384 93.6012 10.6067C93.6805 10.575 93.7653 10.5597 93.8506 10.5617Z" fill="#00579F"/>
<path d="M108.248 8.64271C108.333 8.64095 108.418 8.65641 108.497 8.68819C108.576 8.71997 108.648 8.76742 108.708 8.82765C108.768 8.88788 108.816 8.95967 108.847 9.0387C108.879 9.11773 108.895 9.20237 108.893 9.28753V22.9416C108.893 23.1128 108.825 23.2771 108.704 23.3982C108.583 23.5192 108.419 23.5873 108.247 23.5873C108.076 23.5873 107.912 23.5192 107.791 23.3982C107.67 23.2771 107.602 23.1128 107.602 22.9416V9.28753C107.601 9.20254 107.617 9.1183 107.65 9.0397C107.682 8.96109 107.73 8.88969 107.79 8.82967C107.85 8.76966 107.921 8.72221 108 8.69011C108.079 8.65801 108.163 8.64191 108.248 8.64271ZM109.743 22.9407C109.741 22.8556 109.756 22.7709 109.788 22.6919C109.82 22.6129 109.867 22.5411 109.928 22.4809C109.988 22.4206 110.06 22.3732 110.139 22.3414C110.218 22.3096 110.302 22.2941 110.387 22.2959H116.804C116.975 22.2959 117.139 22.3639 117.26 22.485C117.381 22.6061 117.45 22.7703 117.45 22.9416C117.45 23.1128 117.381 23.2771 117.26 23.3982C117.139 23.5192 116.975 23.5873 116.804 23.5873H110.387C110.302 23.588 110.218 23.5717 110.139 23.5395C110.061 23.5072 109.989 23.4596 109.929 23.3994C109.869 23.3392 109.821 23.2676 109.789 23.1889C109.757 23.1101 109.742 23.0258 109.743 22.9407Z" fill="#00579F"/>
<path d="M120.162 8.64275C120.247 8.64099 120.332 8.65645 120.411 8.68823C120.49 8.72001 120.562 8.76745 120.622 8.82769C120.682 8.88792 120.73 8.95971 120.762 9.03874C120.793 9.11777 120.809 9.20241 120.807 9.28757V22.9416C120.807 23.1129 120.739 23.2771 120.618 23.3982C120.497 23.5193 120.333 23.5873 120.161 23.5873C119.99 23.5873 119.826 23.5193 119.705 23.3982C119.584 23.2771 119.516 23.1129 119.516 22.9416V9.28757C119.514 9.20226 119.53 9.11746 119.561 9.03832C119.593 8.95917 119.641 8.88731 119.701 8.82706C119.762 8.7668 119.834 8.71941 119.913 8.68773C119.992 8.65605 120.077 8.64076 120.162 8.64275Z" fill="#00579F"/>
<path d="M125.069 8.64249C125.154 8.64074 125.238 8.65619 125.317 8.68797C125.396 8.71976 125.468 8.7672 125.528 8.82743C125.589 8.88766 125.636 8.95945 125.668 9.03848C125.7 9.11751 125.715 9.20215 125.713 9.28731V22.9414C125.713 23.1126 125.645 23.2768 125.524 23.3979C125.403 23.519 125.239 23.587 125.068 23.587C124.896 23.587 124.732 23.519 124.611 23.3979C124.49 23.2768 124.422 23.1126 124.422 22.9414V9.28731C124.42 9.202 124.436 9.11721 124.468 9.03806C124.5 8.95891 124.547 8.88705 124.608 8.8268C124.668 8.76654 124.74 8.71915 124.819 8.68747C124.898 8.6558 124.983 8.6405 125.069 8.64249ZM133.961 9.28731C133.963 9.37247 133.947 9.45711 133.915 9.53614C133.884 9.61517 133.836 9.68696 133.776 9.74719C133.716 9.80742 133.644 9.85484 133.565 9.88662C133.486 9.91841 133.401 9.93389 133.316 9.93213H126.9C126.729 9.93213 126.564 9.86411 126.443 9.74302C126.322 9.62193 126.254 9.45769 126.254 9.28644C126.254 9.1152 126.322 8.95096 126.443 8.82987C126.564 8.70878 126.729 8.64076 126.9 8.64076H133.316C133.401 8.63899 133.486 8.65453 133.565 8.68642C133.644 8.71831 133.716 8.76588 133.777 8.8263C133.837 8.88672 133.884 8.95872 133.916 9.03795C133.948 9.11719 133.963 9.20201 133.961 9.28731ZM126.255 15.6012C126.253 15.5161 126.269 15.4314 126.3 15.3524C126.332 15.2734 126.38 15.2016 126.44 15.1414C126.5 15.0811 126.572 15.0337 126.651 15.0019C126.73 14.9701 126.815 14.9547 126.9 14.9564H132.057C132.228 14.9564 132.392 15.0244 132.513 15.1455C132.634 15.2666 132.702 15.4308 132.702 15.6021C132.702 15.7733 132.634 15.9376 132.513 16.0587C132.392 16.1798 132.228 16.2478 132.057 16.2478H126.9C126.815 16.2484 126.73 16.232 126.652 16.1997C126.573 16.1674 126.502 16.1198 126.442 16.0596C126.382 15.9994 126.334 15.9279 126.302 15.8492C126.27 15.7705 126.254 15.6862 126.255 15.6012Z" fill="#00579F"/>
<path d="M137.375 22.9394C137.373 22.8543 137.389 22.7696 137.421 22.6906C137.452 22.6116 137.5 22.5398 137.56 22.4796C137.62 22.4193 137.692 22.3719 137.771 22.3401C137.85 22.3083 137.935 22.2928 138.02 22.2946H144.847C145.018 22.2946 145.182 22.3626 145.304 22.4837C145.425 22.6048 145.493 22.769 145.493 22.9403C145.493 23.1115 145.425 23.2758 145.304 23.3969C145.182 23.5179 145.018 23.586 144.847 23.586H138.02C137.935 23.5865 137.851 23.5702 137.772 23.5379C137.694 23.5056 137.622 23.4579 137.562 23.3978C137.502 23.3376 137.455 23.2661 137.423 23.1874C137.391 23.1087 137.374 23.0244 137.375 22.9394ZM145.462 9.28536C145.464 9.37052 145.448 9.45516 145.416 9.53419C145.384 9.61322 145.337 9.68501 145.277 9.74524C145.217 9.80547 145.145 9.85289 145.066 9.88467C144.987 9.91645 144.902 9.93193 144.817 9.93018H138.048C137.877 9.93018 137.713 9.86215 137.592 9.74106C137.471 9.61997 137.403 9.45574 137.403 9.28449C137.403 9.11325 137.471 8.94901 137.592 8.82792C137.713 8.70683 137.877 8.63881 138.048 8.63881H144.817C144.902 8.63704 144.987 8.65261 145.066 8.68455C145.146 8.71649 145.217 8.76415 145.278 8.82466C145.338 8.88517 145.385 8.95727 145.417 9.03661C145.449 9.11594 145.464 9.20085 145.462 9.28623V9.28536ZM137.419 15.5993C137.417 15.5141 137.433 15.4295 137.465 15.3505C137.496 15.2714 137.544 15.1997 137.604 15.1394C137.664 15.0792 137.736 15.0317 137.815 15C137.894 14.9682 137.979 14.9527 138.064 14.9545H143.574C143.745 14.9545 143.909 15.0225 144.03 15.1436C144.151 15.2647 144.219 15.4289 144.219 15.6001C144.219 15.7714 144.151 15.9356 144.03 16.0567C143.909 16.1778 143.745 16.2458 143.574 16.2458H138.064C137.979 16.2464 137.895 16.2301 137.816 16.1978C137.738 16.1656 137.666 16.118 137.606 16.0579C137.546 15.9979 137.499 15.9264 137.467 15.8478C137.435 15.7693 137.418 15.6842 137.419 15.5993Z" fill="#00579F"/>
<defs>
<linearGradient id="paint0_linear_3405_928" x1="20.5747" y1="22.8422" x2="7.20801" y2="5.48871" gradientUnits="userSpaceOnUse">
<stop stop-color="#000B31"/>
<stop offset="0.344" stop-color="#2375B1"/>
<stop offset="0.957" stop-color="#0CAFDE"/>
<stop offset="1" stop-color="#1B75BB"/>
</linearGradient>
<linearGradient id="paint1_linear_3405_928" x1="23.5768" y1="15.5991" x2="5.62385" y2="37.7565" gradientUnits="userSpaceOnUse">
<stop stop-color="#F3B51B"/>
<stop offset="0.118" stop-color="#E19C1C"/>
<stop offset="0.296" stop-color="#F3B51B"/>
</linearGradient>
<linearGradient id="paint2_linear_3405_928" x1="-0.3705" y1="11.0798" x2="12.3126" y2="-1.58402" gradientUnits="userSpaceOnUse">
<stop stop-color="#00579F"/>
<stop offset="1" stop-color="#39D4FF"/>
</linearGradient>
</defs>
</svg>
