<svg width="20" height="20" viewBox="0 0 20 20" fill="none" xmlns="http://www.w3.org/2000/svg">
<path d="M5.148 19.936C4.79333 19.936 4.51333 19.8333 4.308 19.628C4.10267 19.4227 4 19.152 4 18.816C4 18.4613 4.10267 18.1907 4.308 18.004C4.51333 17.8173 4.79333 17.724 5.148 17.724H8.676V2.352H10.02L5.932 4.984C5.67067 5.152 5.41867 5.22667 5.176 5.208C4.952 5.17067 4.756 5.07733 4.588 4.928C4.42 4.76 4.308 4.564 4.252 4.34C4.196 4.116 4.20533 3.892 4.28 3.668C4.37333 3.42533 4.56 3.22933 4.84 3.08L8.704 0.559999C8.984 0.391999 9.24533 0.261333 9.488 0.168C9.74933 0.0559998 10.0013 0 10.244 0C10.524 0 10.7667 0.084 10.972 0.252C11.1773 0.42 11.28 0.690667 11.28 1.064V17.724H14.528C14.9013 17.724 15.1813 17.8173 15.368 18.004C15.5733 18.1907 15.676 18.4613 15.676 18.816C15.676 19.1707 15.5733 19.4507 15.368 19.656C15.1813 19.8427 14.9013 19.936 14.528 19.936H5.148Z" fill="#4D637C"/>
</svg>
