<svg width="25" height="24" viewBox="0 0 25 24" fill="none" xmlns="http://www.w3.org/2000/svg">
<path fill-rule="evenodd" clip-rule="evenodd" d="M7.09846 2.04934L14.3735 3.33318C15.2888 3.49469 16.017 3.62319 16.6025 3.77256C17.2034 3.92585 17.7064 4.11317 18.1582 4.41799C18.896 4.91575 19.4791 5.61077 19.8411 6.42384C20.0628 6.92177 20.1598 7.44968 20.2064 8.06809C20.2517 8.67067 20.2517 9.4101 20.2517 10.3395V12.4691C21.0194 12.1861 21.9155 12.3528 22.532 12.9694C23.3772 13.8146 23.3772 15.1849 22.532 16.0301L16.032 22.5301C15.1868 23.3752 13.8165 23.3752 12.9714 22.5301C12.2143 21.773 12.1354 20.5946 12.7345 19.7497H10.8414C9.91205 19.7497 9.17262 19.7497 8.57004 19.7044C7.95163 19.6579 7.42372 19.5608 6.9258 19.3392C6.11272 18.9772 5.4177 18.3941 4.91994 17.6563C4.61512 17.2045 4.42781 16.7014 4.27451 16.1005C4.12514 15.515 3.99664 14.7868 3.83513 13.8716L2.5513 6.59651C2.42297 5.8694 2.31784 5.27372 2.27709 4.79301C2.23542 4.3015 2.24984 3.8309 2.43634 3.39146C2.71483 2.73528 3.23724 2.21288 3.89342 1.93439C4.33285 1.74789 4.80345 1.73346 5.29496 1.77513C5.77568 1.81589 6.37135 1.92102 7.09846 2.04934ZM14.191 18.2497L18.7517 13.6891V10.3692C18.7517 9.40344 18.7512 8.72037 18.7106 8.18064C18.6707 7.65032 18.5949 7.31262 18.4708 7.03389C18.2231 6.47758 17.8241 6.00203 17.3193 5.66147C17.0664 5.49083 16.747 5.35747 16.2317 5.22601C15.7072 5.09222 15.0347 4.97303 14.0836 4.80519L6.87322 3.53277C6.10197 3.39667 5.57334 3.30412 5.16825 3.26977C5.02686 3.25779 4.91285 3.25428 4.81983 3.25673L8.53297 6.96987C8.82586 7.26276 8.82586 7.73763 8.53297 8.03053C8.24007 8.32342 7.7652 8.32342 7.47231 8.03053L3.75871 4.31693C3.75621 4.41012 3.7597 4.52443 3.77173 4.66629C3.80607 5.07138 3.89862 5.60002 4.03473 6.37127L5.30714 13.5816C5.47498 14.5327 5.59417 15.2053 5.72796 15.7298C5.85942 16.2451 5.99278 16.5645 6.16342 16.8174C6.50399 17.3222 6.97953 17.7212 7.53584 17.9688C7.81458 18.0929 8.15227 18.1687 8.68259 18.2086C9.22232 18.2492 9.90539 18.2497 10.8712 18.2497H14.191ZM11.5027 9.74974C10.8123 9.74974 10.2527 10.3094 10.2527 10.9997C10.2527 11.6901 10.8123 12.2497 11.5027 12.2497C12.193 12.2497 12.7527 11.6901 12.7527 10.9997C12.7527 10.3094 12.193 9.74974 11.5027 9.74974ZM8.75267 10.9997C8.75267 9.48095 9.98388 8.24974 11.5027 8.24974C13.0214 8.24974 14.2527 9.48095 14.2527 10.9997C14.2527 12.5185 13.0215 13.7497 11.5027 13.7497C9.98388 13.7497 8.75267 12.5185 8.75267 10.9997ZM21.4714 14.0301C21.212 13.7707 20.7914 13.7707 20.532 14.0301L14.032 20.5301C13.7726 20.7895 13.7726 21.21 14.032 21.4694C14.2914 21.7288 14.712 21.7288 14.9714 21.4694L21.4714 14.9694C21.7308 14.71 21.7308 14.2895 21.4714 14.0301Z" fill="#F0F8FF"/>
</svg>
