<svg width="18" height="22" viewBox="0 0 18 22" fill="none" xmlns="http://www.w3.org/2000/svg">
<path fill-rule="evenodd" clip-rule="evenodd" d="M10.25 1.77247C9.91088 1.75145 9.46555 1.75001 8.77818 1.75001C7.47114 1.75001 6.53262 1.75051 5.79411 1.80645C5.06343 1.86178 4.58979 1.96822 4.20363 2.14832C3.29825 2.57057 2.57056 3.29827 2.1483 4.20364C1.9682 4.58981 1.86177 5.06344 1.80643 5.79413C1.7505 6.53263 1.75 7.47115 1.75 8.77819V13C1.75 14.4125 1.75058 15.4268 1.81563 16.2229C1.87996 17.0103 2.00359 17.518 2.21322 17.9295C2.62068 18.7292 3.27085 19.3793 4.07054 19.7868C4.48197 19.9964 4.9897 20.1201 5.77708 20.1844C6.57322 20.2494 7.58749 20.25 9 20.25C10.4125 20.25 11.4268 20.2494 12.2229 20.1844C13.0103 20.1201 13.518 19.9964 13.9295 19.7868C14.7291 19.3793 15.3793 18.7292 15.7868 17.9295C15.9964 17.518 16.12 17.0103 16.1844 16.2229C16.2494 15.4268 16.25 14.4125 16.25 13V9.31372C16.25 8.58845 16.2484 8.11273 16.2255 7.75004H14.1696C13.6354 7.75005 13.1896 7.75006 12.8253 7.7203C12.4454 7.68927 12.0888 7.62215 11.7515 7.45031C11.2341 7.18666 10.8134 6.76596 10.5497 6.24852C10.3779 5.91125 10.3108 5.5546 10.2797 5.17471C10.25 4.81048 10.25 4.36464 10.25 3.83049V1.77247ZM11.75 2.15993V3.80004C11.75 4.37247 11.7506 4.75669 11.7748 5.05256C11.7982 5.33969 11.8401 5.47697 11.8862 5.56753C12.0061 5.80273 12.1973 5.99396 12.4325 6.1138C12.5231 6.15994 12.6604 6.20183 12.9475 6.22529C13.2434 6.24946 13.6276 6.25004 14.2 6.25004H15.8401C15.7752 6.11328 15.703 5.97988 15.6237 5.85046C15.3717 5.43917 15.0165 5.0772 14.1265 4.1872L13.7478 3.80852C12.9239 2.98455 12.5888 2.65537 12.2123 2.41553C12.0634 2.32066 11.909 2.23533 11.75 2.15993ZM8.86987 0.250006C9.91471 0.249895 10.5579 0.249826 11.1736 0.38635C11.8284 0.53152 12.4526 0.790106 13.0183 1.15042C13.5502 1.48926 14.0049 1.94412 14.7437 2.68301C14.765 2.70439 14.7866 2.726 14.8085 2.74786L15.1872 3.12654C15.2108 3.15014 15.2341 3.17348 15.2572 3.19655C16.0552 3.9944 16.5466 4.48565 16.9027 5.06671C17.2179 5.58118 17.4503 6.14206 17.5911 6.72877C17.7502 7.39143 17.7501 8.08624 17.75 9.2147C17.75 9.24734 17.75 9.28034 17.75 9.31372V13.0336C17.75 14.4053 17.75 15.4807 17.6794 16.3451C17.6075 17.2252 17.4586 17.9523 17.1233 18.6105C16.572 19.6924 15.6924 20.572 14.6104 21.1233C13.9523 21.4586 13.2252 21.6075 12.3451 21.6794C11.4807 21.75 10.4053 21.75 9.03358 21.75H8.96642C7.59471 21.75 6.51928 21.75 5.65494 21.6794C4.77479 21.6075 4.04769 21.4586 3.38955 21.1233C2.30762 20.572 1.42798 19.6924 0.876713 18.6105C0.541379 17.9523 0.392522 17.2252 0.320612 16.3451C0.249992 15.4807 0.249995 14.4053 0.25 13.0336V8.74718C0.249996 7.47782 0.249993 6.48261 0.310716 5.68085C0.372525 4.86474 0.500389 4.18821 0.788882 3.56963C1.36017 2.34471 2.3447 1.36018 3.56962 0.788895C4.18819 0.500401 4.86473 0.372537 5.68083 0.310729C6.4826 0.250006 7.47781 0.250009 8.74716 0.250013L8.77818 0.250013C8.80908 0.250013 8.83964 0.25001 8.86987 0.250006ZM5.25 11C5.25 10.5858 5.58579 10.25 6 10.25H12C12.4142 10.25 12.75 10.5858 12.75 11C12.75 11.4142 12.4142 11.75 12 11.75H6C5.58579 11.75 5.25 11.4142 5.25 11ZM5.25 15C5.25 14.5858 5.58579 14.25 6 14.25H10C10.4142 14.25 10.75 14.5858 10.75 15C10.75 15.4142 10.4142 15.75 10 15.75H6C5.58579 15.75 5.25 15.4142 5.25 15Z" fill="#4D637C"/>
</svg>
