<svg width="21" height="20" viewBox="0 0 21 20" fill="none" xmlns="http://www.w3.org/2000/svg">
<path fill-rule="evenodd" clip-rule="evenodd" d="M9.1295 1.0411C9.15946 1.04115 9.18968 1.04119 9.22016 1.04119H11.3371C11.3676 1.04119 11.3978 1.04115 11.4278 1.0411C11.855 1.04047 12.2299 1.03991 12.564 1.17129C12.8561 1.28618 13.1147 1.47257 13.316 1.71336C13.5463 1.98874 13.6644 2.3446 13.7988 2.75005C13.8083 2.77849 13.8178 2.80718 13.8274 2.8361L14.0625 3.54119H18.612C18.9572 3.54119 19.237 3.82102 19.237 4.16619C19.237 4.51137 18.9572 4.79119 18.612 4.79119H17.5346L17.0296 13.3761C16.979 14.237 16.9388 14.9203 16.8622 15.4705C16.7838 16.034 16.6615 16.5089 16.419 16.9401C16.0248 17.641 15.4264 18.2052 14.7036 18.5576C14.2589 18.7743 13.7776 18.8686 13.2105 18.9137C12.6567 18.9579 11.9722 18.9579 11.1097 18.9579H9.44754C8.58506 18.9579 7.9006 18.9579 7.34678 18.9137C6.77969 18.8686 6.29838 18.7743 5.85373 18.5576C5.13089 18.2052 4.53253 17.641 4.1383 16.9401C3.89579 16.5089 3.77344 16.034 3.69505 15.4705C3.61848 14.9202 3.57829 14.237 3.52765 13.376L3.02266 4.79119H1.94531C1.60013 4.79119 1.32031 4.51137 1.32031 4.16619C1.32031 3.82102 1.60013 3.54119 1.94531 3.54119H6.49484L6.72987 2.8361C6.73951 2.80718 6.74902 2.7785 6.75846 2.75006C6.89293 2.3446 7.01096 1.98874 7.24125 1.71336C7.44262 1.47257 7.70122 1.28618 7.99333 1.17129C8.32741 1.03991 8.70233 1.04047 9.1295 1.0411ZM6.9309 4.79119C6.94059 4.79142 6.95026 4.79142 6.9599 4.79119H13.5974C13.607 4.79142 13.6167 4.79142 13.6264 4.79119H16.2825L15.7834 13.276C15.7308 14.1695 15.6931 14.8031 15.6242 15.2983C15.5563 15.7859 15.4641 16.0879 15.3295 16.3273C15.0598 16.8068 14.6504 17.1929 14.1558 17.434C13.909 17.5543 13.6021 17.6286 13.1113 17.6677C12.6129 17.7074 11.9782 17.7079 11.0832 17.7079H9.47414C8.57912 17.7079 7.94442 17.7074 7.44604 17.6677C6.95524 17.6286 6.64831 17.5543 6.4015 17.434C5.90693 17.1929 5.49752 16.8068 5.22778 16.3273C5.09317 16.0879 5.00097 15.7859 4.93312 15.2983C4.86422 14.8031 4.82649 14.1695 4.77393 13.276L4.27482 4.79119H6.9309ZM12.7448 3.54119H7.81245L7.91572 3.23138C8.09651 2.68903 8.14255 2.58413 8.20015 2.51525C8.26727 2.43499 8.35347 2.37286 8.45084 2.33456C8.5344 2.3017 8.64848 2.29119 9.22016 2.29119H11.3371C11.9088 2.29119 12.0229 2.3017 12.1065 2.33456C12.2038 2.37286 12.29 2.43499 12.3571 2.51525C12.4147 2.58413 12.4608 2.68903 12.6416 3.23138L12.7448 3.54119ZM8.61198 7.70786C8.95716 7.70786 9.23698 7.98768 9.23698 8.33286V14.1662C9.23698 14.5114 8.95716 14.7912 8.61198 14.7912C8.2668 14.7912 7.98698 14.5114 7.98698 14.1662V8.33286C7.98698 7.98768 8.2668 7.70786 8.61198 7.70786ZM11.9453 7.70786C12.2905 7.70786 12.5703 7.98768 12.5703 8.33286V11.6662C12.5703 12.0114 12.2905 12.2912 11.9453 12.2912C11.6001 12.2912 11.3203 12.0114 11.3203 11.6662V8.33286C11.3203 7.98768 11.6001 7.70786 11.9453 7.70786Z" fill="#E7000B"/>
</svg>
